G04*
G04 #@! TF.GenerationSoftware,Altium Limited,Altium Designer,24.2.2 (26)*
G04*
G04 Layer_Color=8388736*
%FSLAX44Y44*%
%MOMM*%
G71*
G04*
G04 #@! TF.SameCoordinates,B64C3CBE-EE26-4C86-9773-21E75D238B38*
G04*
G04*
G04 #@! TF.FilePolarity,Negative*
G04*
G01*
G75*
%ADD20R,0.4256X0.4047*%
%ADD21C,2.1500*%
%ADD22R,2.3016X2.6016*%
%ADD23R,1.3016X2.6016*%
%ADD24R,2.1016X2.6936*%
%ADD25R,0.4000X1.3000*%
%ADD26R,2.1000X1.9000*%
%ADD27R,0.6673X0.6416*%
%ADD28C,1.7500*%
%ADD29R,1.8016X1.8016*%
%ADD30C,1.8016*%
%ADD31C,1.6764*%
%ADD32R,1.6764X1.6764*%
%ADD33C,1.2516*%
%ADD34C,1.6500*%
%ADD35C,0.7500*%
D20*
X282194Y220089D02*
D03*
Y215257D02*
D03*
X134366Y97531D02*
D03*
Y102362D02*
D03*
X123698Y97277D02*
D03*
Y102108D02*
D03*
D21*
X79248Y105664D02*
D03*
X319532Y402033D02*
D03*
Y351233D02*
D03*
Y376633D02*
D03*
Y325833D02*
D03*
D22*
X414528Y214884D02*
D03*
X415290Y106934D02*
D03*
D23*
X395028Y214884D02*
D03*
X395790Y106934D02*
D03*
D24*
X390723Y160528D02*
D03*
X421569D02*
D03*
D25*
X232156Y114554D02*
D03*
X227155D02*
D03*
X222156D02*
D03*
X217155D02*
D03*
X212156D02*
D03*
X207155D02*
D03*
X202156D02*
D03*
X197155D02*
D03*
X192156D02*
D03*
X187155D02*
D03*
X182156D02*
D03*
X177155D02*
D03*
X172156D02*
D03*
X167155D02*
D03*
X162156D02*
D03*
X157155D02*
D03*
X152156D02*
D03*
X147155D02*
D03*
X142156D02*
D03*
X137155D02*
D03*
X132156D02*
D03*
X127155D02*
D03*
X122156D02*
D03*
X117155D02*
D03*
D26*
X247655Y147053D02*
D03*
X101656D02*
D03*
D27*
X76718Y216916D02*
D03*
X68062D02*
D03*
X270784Y217424D02*
D03*
X262128D02*
D03*
D28*
X277876Y460756D02*
D03*
X297876D02*
D03*
D29*
X383794Y261874D02*
D03*
Y54610D02*
D03*
D30*
X409194Y261874D02*
D03*
X434594D02*
D03*
X409194Y54610D02*
D03*
X434594D02*
D03*
D31*
X277622Y185166D02*
D03*
Y159766D02*
D03*
X70612Y185166D02*
D03*
Y159766D02*
D03*
D32*
X277622Y134366D02*
D03*
X70612D02*
D03*
D33*
X69596Y454273D02*
D03*
Y469271D02*
D03*
D34*
X274574Y344678D02*
D03*
X74422D02*
D03*
D35*
X287020Y247904D02*
D03*
X76454Y425450D02*
D03*
X84074D02*
D03*
Y432816D02*
D03*
X76454D02*
D03*
X47244Y138938D02*
D03*
X54864D02*
D03*
Y146304D02*
D03*
X47244D02*
D03*
Y124714D02*
D03*
X54864D02*
D03*
Y132080D02*
D03*
X47244D02*
D03*
X49022Y228854D02*
D03*
X56642D02*
D03*
Y236220D02*
D03*
X49022D02*
D03*
X298704Y126492D02*
D03*
Y118618D02*
D03*
X298675Y134183D02*
D03*
Y141803D02*
D03*
X306832Y141732D02*
D03*
Y134112D02*
D03*
Y118364D02*
D03*
Y126238D02*
D03*
X93726Y165354D02*
D03*
X101346D02*
D03*
X93726Y172466D02*
D03*
X101346D02*
D03*
X93726Y180340D02*
D03*
X101346D02*
D03*
X273050Y104394D02*
D03*
X280670D02*
D03*
X257556D02*
D03*
X265176D02*
D03*
X243332D02*
D03*
X250190D02*
D03*
X166624Y254000D02*
D03*
X174244D02*
D03*
X143510Y254254D02*
D03*
X151130D02*
D03*
X94488Y195580D02*
D03*
X102108D02*
D03*
Y188214D02*
D03*
X94488D02*
D03*
X49022Y222504D02*
D03*
X56642D02*
D03*
Y215138D02*
D03*
X49022D02*
D03*
X94488Y210566D02*
D03*
X102108D02*
D03*
Y203200D02*
D03*
X94488D02*
D03*
X298704Y338074D02*
D03*
X306324D02*
D03*
Y330708D02*
D03*
X298704D02*
D03*
X316230Y441960D02*
D03*
X323850D02*
D03*
Y434594D02*
D03*
X316230D02*
D03*
X276098Y425450D02*
D03*
Y418084D02*
D03*
X262636Y425450D02*
D03*
X270256D02*
D03*
Y418084D02*
D03*
X262636D02*
D03*
X51054Y315722D02*
D03*
X58674D02*
D03*
Y308356D02*
D03*
X51054D02*
D03*
X50800Y330454D02*
D03*
X58420D02*
D03*
Y323088D02*
D03*
X50800D02*
D03*
X50546Y344932D02*
D03*
X58166D02*
D03*
Y337566D02*
D03*
X50546D02*
D03*
X290576Y218694D02*
D03*
X298196D02*
D03*
Y211328D02*
D03*
X290576D02*
D03*
Y233172D02*
D03*
X298196D02*
D03*
Y225806D02*
D03*
X290576D02*
D03*
X242570Y172466D02*
D03*
X250190D02*
D03*
X242570Y179324D02*
D03*
X250190D02*
D03*
X242570Y186182D02*
D03*
X250190D02*
D03*
Y193548D02*
D03*
X242570D02*
D03*
X182626Y224282D02*
D03*
X162814Y147828D02*
D03*
X151384Y137922D02*
D03*
X245872Y277622D02*
D03*
X217932Y304292D02*
D03*
X233172Y402590D02*
D03*
X175768Y312166D02*
D03*
X81788Y379222D02*
D03*
X197696Y130302D02*
D03*
X231140Y361188D02*
D03*
X90797Y308845D02*
D03*
X116840Y300482D02*
D03*
X124460Y276606D02*
D03*
X129286Y131572D02*
D03*
X110490Y124460D02*
D03*
X133350Y276606D02*
D03*
X158496D02*
D03*
X183896D02*
D03*
X193040D02*
D03*
X201930D02*
D03*
X210312D02*
D03*
X218186D02*
D03*
X227330D02*
D03*
X235712D02*
D03*
X231140Y300736D02*
D03*
Y309372D02*
D03*
X227696Y131572D02*
D03*
X231140Y326136D02*
D03*
Y317500D02*
D03*
Y343154D02*
D03*
Y352044D02*
D03*
Y334518D02*
D03*
X143002Y94408D02*
D03*
X142879Y102256D02*
D03*
X167132Y303276D02*
D03*
X318770Y424434D02*
D03*
X89408Y326390D02*
D03*
M02*
