G04*
G04 #@! TF.GenerationSoftware,Altium Limited,Altium Designer,24.2.2 (26)*
G04*
G04 Layer_Color=255*
%FSLAX44Y44*%
%MOMM*%
G71*
G04*
G04 #@! TF.SameCoordinates,B64C3CBE-EE26-4C86-9773-21E75D238B38*
G04*
G04*
G04 #@! TF.FilePolarity,Positive*
G04*
G01*
G75*
%ADD14C,2.0000*%
%ADD15R,2.2000X2.5000*%
%ADD16R,1.2000X2.5000*%
%ADD17R,2.0000X2.5920*%
%ADD18R,0.3000X1.2000*%
%ADD19R,2.0000X1.8000*%
%ADD36R,0.3240X0.3031*%
%ADD37R,0.5657X0.5400*%
%ADD39C,1.6000*%
%ADD40R,1.7000X1.7000*%
%ADD41C,1.7000*%
%ADD42C,1.5748*%
%ADD43R,1.5748X1.5748*%
%ADD44C,1.1500*%
%ADD45C,1.5000*%
D14*
X79248Y105664D02*
D03*
X319532Y402033D02*
D03*
Y351233D02*
D03*
Y376633D02*
D03*
Y325833D02*
D03*
D15*
X414528Y214884D02*
D03*
X415290Y106934D02*
D03*
D16*
X395028Y214884D02*
D03*
X395790Y106934D02*
D03*
D17*
X390723Y160528D02*
D03*
X421569D02*
D03*
D18*
X232156Y114554D02*
D03*
X227155D02*
D03*
X222156D02*
D03*
X217155D02*
D03*
X212156D02*
D03*
X207155D02*
D03*
X202156D02*
D03*
X197155D02*
D03*
X192156D02*
D03*
X187155D02*
D03*
X182156D02*
D03*
X177155D02*
D03*
X172156D02*
D03*
X167155D02*
D03*
X162156D02*
D03*
X157155D02*
D03*
X152156D02*
D03*
X147155D02*
D03*
X142156D02*
D03*
X137155D02*
D03*
X132156D02*
D03*
X127155D02*
D03*
X122156D02*
D03*
X117155D02*
D03*
D19*
X247655Y147053D02*
D03*
X101656D02*
D03*
D36*
X282194Y220089D02*
D03*
Y215257D02*
D03*
X134366Y97531D02*
D03*
Y102362D02*
D03*
X123698Y97277D02*
D03*
Y102108D02*
D03*
D37*
X76718Y216916D02*
D03*
X68062D02*
D03*
X270784Y217424D02*
D03*
X262128D02*
D03*
D39*
X277876Y460756D02*
D03*
X297876D02*
D03*
D40*
X383794Y261874D02*
D03*
Y54610D02*
D03*
D41*
X409194Y261874D02*
D03*
X434594D02*
D03*
X409194Y54610D02*
D03*
X434594D02*
D03*
D42*
X277622Y185166D02*
D03*
Y159766D02*
D03*
X70612Y185166D02*
D03*
Y159766D02*
D03*
D43*
X277622Y134366D02*
D03*
X70612D02*
D03*
D44*
X69596Y454273D02*
D03*
Y469271D02*
D03*
D45*
X274574Y344678D02*
D03*
X74422D02*
D03*
M02*
