M48
;Layer_Color=9474304
;FILE_FORMAT=4:4
METRIC,LZ
;TYPE=PLATED
T01F00S00C0.3000
T02F00S00C0.3048
T03F00S00C0.7000
T04F00S00C0.9000
T05F00S00C1.0200
T06F00S00C1.1000
T07F00S00C1.2000
%
T01
X00182626Y00224282
X00217932Y00304292
X00245872Y00277622
X00233172Y0040259
X00081788Y00379222
T02
X00054864Y00124714
Y0013208
Y00138938
Y00146304
X00093726Y00165354
Y00172466
X00101346
Y00165354
Y0018034
X00093726
X00094488Y00188214
Y0019558
X00102108
Y00188214
Y002032
Y00210566
X00094488
Y002032
X00056642Y00215138
Y00222504
Y00228854
Y0023622
X00058674Y00308356
Y00315722
X00051054
Y00308356
X000508Y00323088
Y00330454
X00050546Y00337566
Y00344932
X00058166
Y00337566
X0005842Y00330454
Y00323088
X00089408Y0032639
X00090797Y00308845
X0011684Y00300482
X0012446Y00276606
X0013335
X00158496
X00183896
X0019304
X0020193
X00210312
X00218186
X0022733
X00235712
X0023114Y00300736
Y00309372
Y003175
Y00326136
Y00334518
Y00343154
Y00352044
Y00361188
X00262636Y00418084
Y0042545
X00270256
X00276098
Y00418084
X00270256
X0031877Y00424434
X0031623Y00434594
X0032385
X00306324Y00338074
Y00330708
X00298704
Y00338074
X0028702Y00247904
X00290576Y00233172
Y00225806
Y00218694
Y00211328
X00298196
Y00218694
Y00225806
Y00233172
X0025019Y00193548
Y00186182
Y00179324
Y00172466
X0024257
Y00179324
Y00186182
Y00193548
X00227696Y00131572
X00197696Y00130302
X00162814Y00147828
X00151384Y00137922
X00129286Y00131572
X0011049Y0012446
X00142879Y00102256
X00143002Y00094408
X00243332Y00104394
X0025019
X00257556
X00265176
X0027305
X0028067
X00298704Y00118618
Y00126492
X00298675Y00134183
Y00141803
X00306832Y00141732
Y00134112
Y00126238
Y00118364
X00174244Y00254
X00166624
X0015113Y00254254
X0014351
X00167132Y00303276
X00175768Y00312166
X00084074Y0042545
Y00432816
X00076454
Y0042545
X00049022Y0023622
Y00228854
Y00222504
Y00215138
X00047244Y00146304
Y00138938
Y0013208
Y00124714
X0031623Y0044196
X0032385
T03
X00069596Y00454273
Y0046927
T04
X00277876Y00460756
X00297876
T05
X00070612Y00134366
Y00159766
Y00185166
X00277622
Y00159766
Y00134366
T06
X00383794Y0005461
X00409194
X00434594
Y00261874
X00409194
X00383794
T07
X00074422Y00344678
X00274574
M30
