G04*
G04 #@! TF.GenerationSoftware,Altium Limited,Altium Designer,24.2.2 (26)*
G04*
G04 Layer_Color=32768*
%FSLAX44Y44*%
%MOMM*%
G71*
G04*
G04 #@! TF.SameCoordinates,B64C3CBE-EE26-4C86-9773-21E75D238B38*
G04*
G04*
G04 #@! TF.FilePolarity,Positive*
G04*
G01*
G75*
%ADD13C,0.0508*%
G36*
X317970Y489002D02*
X317975Y488757D01*
D01*
Y488757D01*
Y488757D01*
X317970Y488512D01*
X317620Y488170D01*
X317131D01*
X316781Y488512D01*
X316776Y488757D01*
X316781Y489002D01*
X317131Y489344D01*
X317620D01*
X317970Y489002D01*
D02*
G37*
G36*
X253112Y488391D02*
X253462Y488048D01*
X253467Y487804D01*
X253461Y487559D01*
X253111Y487217D01*
X252622Y487217D01*
X252272Y487560D01*
X252267Y487804D01*
X252267Y487804D01*
X252273Y488049D01*
X252623Y488392D01*
X253112Y488391D01*
D02*
G37*
G36*
X48194Y484521D02*
X48194Y484024D01*
X47843Y483673D01*
X47594Y483673D01*
X47346Y483673D01*
X46995Y484024D01*
X46995Y484521D01*
X47346Y484872D01*
X47594Y484872D01*
X47843Y484872D01*
X48194Y484521D01*
D02*
G37*
G36*
X69596Y471771D02*
X70091Y471767D01*
X71003Y471384D01*
X71701Y470681D01*
X72078Y469766D01*
X72078Y468777D01*
X71701Y467861D01*
X71003Y467159D01*
X70091Y466775D01*
X69596Y466772D01*
X69596Y466772D01*
X69101Y466775D01*
X68189Y467159D01*
X67491Y467861D01*
X67114Y468776D01*
X67114Y469766D01*
X67491Y470681D01*
X68188Y471384D01*
X69101Y471767D01*
X69596Y471771D01*
X69596Y471771D01*
D02*
G37*
G36*
X300376Y458256D02*
X295376D01*
Y463256D01*
X300376D01*
Y458256D01*
D02*
G37*
G36*
X280376D02*
X275376D01*
Y463256D01*
X280376D01*
Y458256D01*
D02*
G37*
G36*
X69596Y456772D02*
X70091Y456769D01*
X71003Y456385D01*
X71701Y455683D01*
X72078Y454768D01*
X72078Y453778D01*
X71701Y452863D01*
X71003Y452160D01*
X70091Y451776D01*
X69596Y451773D01*
X69596Y451773D01*
X69101Y451776D01*
X68189Y452160D01*
X67491Y452862D01*
X67114Y453778D01*
X67114Y454767D01*
X67491Y455683D01*
X68188Y456385D01*
X69101Y456769D01*
X69596Y456772D01*
X69596Y456772D01*
D02*
G37*
G36*
X237367Y426305D02*
X233367D01*
Y434305D01*
X237367D01*
Y426305D01*
D02*
G37*
G36*
X228867D02*
X224867D01*
Y434305D01*
X228867D01*
Y426305D01*
D02*
G37*
G36*
X220367D02*
X216367D01*
Y434305D01*
X220367D01*
Y426305D01*
D02*
G37*
G36*
X211867D02*
X207867D01*
Y434305D01*
X211867D01*
Y426305D01*
D02*
G37*
G36*
X203367D02*
X199367D01*
Y434305D01*
X203367D01*
Y426305D01*
D02*
G37*
G36*
X194867D02*
X190867D01*
Y434305D01*
X194867D01*
Y426305D01*
D02*
G37*
G36*
X186367D02*
X182367D01*
Y434305D01*
X186367D01*
Y426305D01*
D02*
G37*
G36*
X177867D02*
X173867D01*
Y434305D01*
X177867D01*
Y426305D01*
D02*
G37*
G36*
X169367D02*
X165367D01*
Y434305D01*
X169367D01*
Y426305D01*
D02*
G37*
G36*
X160867D02*
X156867D01*
Y434305D01*
X160867D01*
Y426305D01*
D02*
G37*
G36*
X152367D02*
X148367D01*
Y434305D01*
X152367D01*
Y426305D01*
D02*
G37*
G36*
X143867D02*
X139867D01*
Y434305D01*
X143867D01*
Y426305D01*
D02*
G37*
G36*
X135367D02*
X131367D01*
Y434305D01*
X135367D01*
Y426305D01*
D02*
G37*
G36*
X126867D02*
X122867D01*
Y434305D01*
X126867D01*
Y426305D01*
D02*
G37*
G36*
X118367D02*
X114367D01*
Y434305D01*
X118367D01*
Y426305D01*
D02*
G37*
G36*
X249867Y426055D02*
X241867D01*
Y434055D01*
X249867D01*
Y426055D01*
D02*
G37*
G36*
X109867D02*
X101867D01*
Y434055D01*
X109867D01*
Y426055D01*
D02*
G37*
G36*
X249617Y417555D02*
X241617D01*
Y421555D01*
X249617D01*
Y417555D01*
D02*
G37*
G36*
X110117D02*
X102117D01*
Y421555D01*
X110117D01*
Y417555D01*
D02*
G37*
G36*
X69937Y413748D02*
X63937D01*
Y419748D01*
X69937D01*
Y413748D01*
D02*
G37*
G36*
X54935D02*
X48935D01*
Y419748D01*
X54935D01*
Y413748D01*
D02*
G37*
G36*
X83278Y411262D02*
X83617Y410913D01*
X83617Y410426D01*
X83278Y410077D01*
X83035Y410070D01*
X83035Y410070D01*
X83034Y410070D01*
Y409170D01*
X80034D01*
Y410670D01*
X82453D01*
X82452Y410913D01*
X82791Y411262D01*
X83035Y411269D01*
X83035Y411269D01*
X83278Y411262D01*
D02*
G37*
G36*
X298560Y410254D02*
X298902Y409904D01*
X298902Y409414D01*
X298559Y409065D01*
X298314Y409060D01*
X298314Y409060D01*
X298069Y409065D01*
X297726Y409415D01*
X297727Y409905D01*
X298070Y410255D01*
X298315Y410260D01*
X298560Y410254D01*
D02*
G37*
G36*
X249617Y409055D02*
X241617D01*
Y413055D01*
X249617D01*
Y409055D01*
D02*
G37*
G36*
X110117D02*
X102117D01*
Y413055D01*
X110117D01*
Y409055D01*
D02*
G37*
G36*
X83034Y404670D02*
X80034D01*
Y406170D01*
X83034D01*
Y404670D01*
D02*
G37*
G36*
X294814Y404160D02*
X284814D01*
Y409660D01*
X294814D01*
Y404160D01*
D02*
G37*
G36*
X249617Y400555D02*
X241617D01*
Y404555D01*
X249617D01*
Y400555D01*
D02*
G37*
G36*
X110117D02*
X102117D01*
Y404555D01*
X110117D01*
Y400555D01*
D02*
G37*
G36*
X268454Y399772D02*
X265454D01*
Y401272D01*
X268454D01*
Y399772D01*
D02*
G37*
G36*
Y395272D02*
X266054D01*
X266054Y395023D01*
X265702Y394671D01*
X265453Y394671D01*
X265205Y394671D01*
X264853Y395023D01*
X264853Y395520D01*
X265205Y395872D01*
X265454Y395872D01*
X265454D01*
Y396772D01*
X268454D01*
Y395272D01*
D02*
G37*
G36*
X83289Y394636D02*
X83537Y394636D01*
X83889Y394285D01*
X83889Y393787D01*
X83537Y393436D01*
X83288Y393436D01*
Y392536D01*
X80288D01*
Y394035D01*
X82688D01*
X82688Y394285D01*
X83040Y394637D01*
X83289Y394636D01*
D02*
G37*
G36*
X249617Y392055D02*
X241617D01*
Y396055D01*
X249617D01*
Y392055D01*
D02*
G37*
G36*
X110117D02*
X102117D01*
Y396055D01*
X110117D01*
Y392055D01*
D02*
G37*
G36*
X83288Y388036D02*
X80288D01*
Y389535D01*
X83288D01*
Y388036D01*
D02*
G37*
G36*
X249617Y383555D02*
X241617D01*
Y387555D01*
X249617D01*
Y383555D01*
D02*
G37*
G36*
X110117D02*
X102117D01*
Y387555D01*
X110117D01*
Y383555D01*
D02*
G37*
G36*
X249617Y375055D02*
X241617D01*
Y379055D01*
X249617D01*
Y375055D01*
D02*
G37*
G36*
X110117D02*
X102117D01*
Y379055D01*
X110117D01*
Y375055D01*
D02*
G37*
G36*
X69937Y373748D02*
X63937D01*
Y379748D01*
X69937D01*
Y373748D01*
D02*
G37*
G36*
X54935D02*
X48935D01*
Y379748D01*
X54935D01*
Y373748D01*
D02*
G37*
G36*
X73436Y374348D02*
X73685Y374348D01*
X74036Y373996D01*
X74036Y373498D01*
X73684Y373147D01*
X73435Y373147D01*
X73186Y373147D01*
X72835Y373499D01*
X72835Y373997D01*
X73187Y374348D01*
X73436Y374348D01*
D02*
G37*
G36*
X294814Y372660D02*
X284814D01*
Y378160D01*
X294814D01*
Y372660D01*
D02*
G37*
G36*
X198367Y370555D02*
X186367D01*
Y382555D01*
X198367D01*
Y370555D01*
D02*
G37*
G36*
X181867D02*
X169867D01*
Y382555D01*
X181867D01*
Y370555D01*
D02*
G37*
G36*
X165367D02*
X153367D01*
Y382555D01*
X165367D01*
Y370555D01*
D02*
G37*
G36*
X249617Y366555D02*
X241617D01*
Y370555D01*
X249617D01*
Y366555D01*
D02*
G37*
G36*
X110117D02*
X102117D01*
Y370555D01*
X110117D01*
Y366555D01*
D02*
G37*
G36*
X249617Y358055D02*
X241617D01*
Y362055D01*
X249617D01*
Y358055D01*
D02*
G37*
G36*
X110117D02*
X102117D01*
Y362055D01*
X110117D01*
Y358055D01*
D02*
G37*
G36*
X198367Y354055D02*
X186367D01*
Y366055D01*
X198367D01*
Y354055D01*
D02*
G37*
G36*
X181867D02*
X169867D01*
Y366055D01*
X181867D01*
Y354055D01*
D02*
G37*
G36*
X165367D02*
X153367D01*
Y366055D01*
X165367D01*
Y354055D01*
D02*
G37*
G36*
X249617Y349555D02*
X241617D01*
Y353555D01*
X249617D01*
Y349555D01*
D02*
G37*
G36*
X110117D02*
X102117D01*
Y353555D01*
X110117D01*
Y349555D01*
D02*
G37*
G36*
X249617Y341055D02*
X241617D01*
Y345055D01*
X249617D01*
Y341055D01*
D02*
G37*
G36*
X110117D02*
X102117D01*
Y345055D01*
X110117D01*
Y341055D01*
D02*
G37*
G36*
X198367Y337555D02*
X186367D01*
Y349555D01*
X198367D01*
Y337555D01*
D02*
G37*
G36*
X181867D02*
X169867D01*
Y349555D01*
X181867D01*
Y337555D01*
D02*
G37*
G36*
X165367D02*
X153367D01*
Y349555D01*
X165367D01*
Y337555D01*
D02*
G37*
G36*
X249617Y332555D02*
X241617D01*
Y336555D01*
X249617D01*
Y332555D01*
D02*
G37*
G36*
X110117D02*
X102117D01*
Y336555D01*
X110117D01*
Y332555D01*
D02*
G37*
G36*
X249617Y324055D02*
X241617D01*
Y328055D01*
X249617D01*
Y324055D01*
D02*
G37*
G36*
X110117D02*
X102117D01*
Y328055D01*
X110117D01*
Y324055D01*
D02*
G37*
G36*
X249617Y315555D02*
X241617D01*
Y319555D01*
X249617D01*
Y315555D01*
D02*
G37*
G36*
X110117D02*
X102117D01*
Y319555D01*
X110117D01*
Y315555D01*
D02*
G37*
G36*
X249617Y307055D02*
X241617D01*
Y311055D01*
X249617D01*
Y307055D01*
D02*
G37*
G36*
X110117D02*
X102117D01*
Y311055D01*
X110117D01*
Y307055D01*
D02*
G37*
G36*
X316768Y303718D02*
X310668D01*
Y308118D01*
X316768D01*
Y303718D01*
D02*
G37*
G36*
X294868D02*
X288768D01*
Y308118D01*
X294868D01*
Y303718D01*
D02*
G37*
G36*
X249617Y298555D02*
X241617D01*
Y302555D01*
X249617D01*
Y298555D01*
D02*
G37*
G36*
X110117D02*
X102117D01*
Y302555D01*
X110117D01*
Y298555D01*
D02*
G37*
G36*
X316768Y294218D02*
X310668D01*
Y298618D01*
X316768D01*
Y294218D01*
D02*
G37*
G36*
X294868D02*
X288768D01*
Y298618D01*
X294868D01*
Y294218D01*
D02*
G37*
G36*
X329404Y294930D02*
X329743Y294581D01*
X329743Y294094D01*
X329404Y293745D01*
X329161Y293738D01*
X329161Y293738D01*
X329160Y293738D01*
Y292838D01*
X326160D01*
Y294338D01*
X328579D01*
X328578Y294580D01*
X328917Y294930D01*
X329161Y294937D01*
X329161Y294937D01*
X329404Y294930D01*
D02*
G37*
G36*
X329160Y288338D02*
X326160D01*
Y289838D01*
X329160D01*
Y288338D01*
D02*
G37*
G36*
X249867Y286055D02*
X241867D01*
Y294055D01*
X249867D01*
Y286055D01*
D02*
G37*
G36*
X109867D02*
X101867D01*
Y294055D01*
X109867D01*
Y286055D01*
D02*
G37*
G36*
X237367Y285805D02*
X233367D01*
Y293805D01*
X237367D01*
Y285805D01*
D02*
G37*
G36*
X228867D02*
X224867D01*
Y293805D01*
X228867D01*
Y285805D01*
D02*
G37*
G36*
X220367D02*
X216367D01*
Y293805D01*
X220367D01*
Y285805D01*
D02*
G37*
G36*
X211867D02*
X207867D01*
Y293805D01*
X211867D01*
Y285805D01*
D02*
G37*
G36*
X203367D02*
X199367D01*
Y293805D01*
X203367D01*
Y285805D01*
D02*
G37*
G36*
X194867D02*
X190867D01*
Y293805D01*
X194867D01*
Y285805D01*
D02*
G37*
G36*
X186367D02*
X182367D01*
Y293805D01*
X186367D01*
Y285805D01*
D02*
G37*
G36*
X177867D02*
X173867D01*
Y293805D01*
X177867D01*
Y285805D01*
D02*
G37*
G36*
X169367D02*
X165367D01*
Y293805D01*
X169367D01*
Y285805D01*
D02*
G37*
G36*
X160867D02*
X156867D01*
Y293805D01*
X160867D01*
Y285805D01*
D02*
G37*
G36*
X152367D02*
X148367D01*
Y293805D01*
X152367D01*
Y285805D01*
D02*
G37*
G36*
X143867D02*
X139867D01*
Y293805D01*
X143867D01*
Y285805D01*
D02*
G37*
G36*
X135367D02*
X131367D01*
Y293805D01*
X135367D01*
Y285805D01*
D02*
G37*
G36*
X126867D02*
X122867D01*
Y293805D01*
X126867D01*
Y285805D01*
D02*
G37*
G36*
X118367D02*
X114367D01*
Y293805D01*
X118367D01*
Y285805D01*
D02*
G37*
G36*
X316768Y284718D02*
X310668D01*
Y289118D01*
X316768D01*
Y284718D01*
D02*
G37*
G36*
X294868D02*
X288768D01*
Y289118D01*
X294868D01*
Y284718D01*
D02*
G37*
G36*
X288768Y282517D02*
X289012Y282512D01*
X289355Y282162D01*
X289354Y281672D01*
X289011Y281322D01*
X288767Y281318D01*
X288522Y281323D01*
X288179Y281673D01*
X288180Y282162D01*
X288523Y282512D01*
X288768Y282517D01*
X288768Y282517D01*
D02*
G37*
G36*
X324459Y271025D02*
X324462Y270779D01*
X324462Y270779D01*
X324459Y270533D01*
X324109Y270188D01*
X323618Y270187D01*
X323267Y270532D01*
X323263Y270778D01*
X323266Y271024D01*
X323616Y271369D01*
X324108Y271370D01*
X324459Y271025D01*
D02*
G37*
G36*
X277096Y264030D02*
X277344Y264030D01*
X277695Y263678D01*
X277695Y263181D01*
X277344Y262830D01*
X277095Y262830D01*
X276847Y262831D01*
X276496Y263182D01*
X276496Y263679D01*
X276848Y264030D01*
X277096Y264030D01*
D02*
G37*
G36*
X253474Y263664D02*
X253722Y263664D01*
X254073Y263312D01*
X254073Y262815D01*
X253722Y262464D01*
X253473Y262465D01*
X253225Y262465D01*
X252874Y262816D01*
X252874Y263313D01*
X253226Y263664D01*
X253474Y263664D01*
D02*
G37*
G36*
X186893Y263667D02*
X187232Y263318D01*
X187232Y262831D01*
X186893Y262481D01*
X186650Y262474D01*
Y260563D01*
X181650D01*
Y263063D01*
X186067D01*
X186067Y263317D01*
X186406Y263666D01*
X186649Y263674D01*
X186649Y263674D01*
X186893Y263667D01*
D02*
G37*
G36*
X437794Y258674D02*
X431394D01*
Y265074D01*
X437794D01*
Y258674D01*
D02*
G37*
G36*
X412394D02*
X405994D01*
Y265074D01*
X412394D01*
Y258674D01*
D02*
G37*
G36*
X386994D02*
X380594D01*
Y265074D01*
X386994D01*
Y258674D01*
D02*
G37*
G36*
X276796Y257730D02*
X268796D01*
Y260730D01*
X276796D01*
Y257730D01*
D02*
G37*
G36*
X253174Y257364D02*
X245174D01*
Y260364D01*
X253174D01*
Y257364D01*
D02*
G37*
G36*
X212057Y258444D02*
Y256844D01*
X208057D01*
Y258444D01*
Y262444D01*
X212057D01*
Y258444D01*
D02*
G37*
G36*
X235435Y256201D02*
X235683Y256201D01*
X236035Y255849D01*
X236035Y255352D01*
X235683Y255000D01*
X235434Y255000D01*
Y254101D01*
X232434D01*
Y255600D01*
X234834D01*
X234834Y255850D01*
X235186Y256201D01*
X235435Y256201D01*
D02*
G37*
G36*
X186650Y253060D02*
X181650D01*
Y255560D01*
X186650D01*
Y253060D01*
D02*
G37*
G36*
X235434Y249601D02*
X232434D01*
Y251100D01*
X235434D01*
Y249601D01*
D02*
G37*
G36*
X371684Y249615D02*
X371694Y249374D01*
X371694Y249374D01*
X371684Y249133D01*
X371336Y248799D01*
X370853Y248799D01*
X370505Y249132D01*
X370495Y249374D01*
X370495Y249374D01*
X370505Y249615D01*
X370853Y249949D01*
X371336Y249949D01*
X371684Y249615D01*
D02*
G37*
G36*
X276796Y244730D02*
X268796D01*
Y247730D01*
X276796D01*
Y244730D01*
D02*
G37*
G36*
X253174Y244364D02*
X245174D01*
Y247364D01*
X253174D01*
Y244364D01*
D02*
G37*
G36*
X323864Y243278D02*
X316364D01*
Y268278D01*
X323864D01*
Y243278D01*
D02*
G37*
G36*
X301364D02*
X293864D01*
Y268278D01*
X301364D01*
Y243278D01*
D02*
G37*
G36*
X84564Y241424D02*
X84812Y241423D01*
X85163Y241072D01*
X85163Y240575D01*
X84812Y240224D01*
X84563Y240224D01*
X84315Y240224D01*
X83964Y240576D01*
X83964Y241073D01*
X84316Y241424D01*
X84564Y241424D01*
D02*
G37*
G36*
X108440Y241170D02*
X108688Y241169D01*
X109039Y240818D01*
X109039Y240321D01*
X108688Y239970D01*
X108439Y239970D01*
X108191Y239970D01*
X107840Y240322D01*
X107840Y240819D01*
X108192Y241170D01*
X108440Y241170D01*
D02*
G37*
G36*
X159068Y239797D02*
X159073Y239552D01*
D01*
Y239552D01*
Y239552D01*
X159068Y239308D01*
X158718Y238965D01*
X158229D01*
X157879Y239308D01*
X157874Y239552D01*
X157879Y239797D01*
X158229Y240140D01*
X158718D01*
X159068Y239797D01*
D02*
G37*
G36*
X221557Y242344D02*
Y238444D01*
X217557D01*
Y242344D01*
Y244044D01*
X221557D01*
Y242344D01*
D02*
G37*
G36*
X202558D02*
Y238444D01*
X198558D01*
Y242344D01*
Y244044D01*
X202558D01*
Y242344D01*
D02*
G37*
G36*
X124728Y239585D02*
X125078Y239242D01*
X125083Y238998D01*
X125083Y238998D01*
X125077Y238753D01*
X124727Y238411D01*
X124238Y238411D01*
X123888Y238754D01*
X123883Y238999D01*
X123883Y238999D01*
X123889Y239244D01*
X124239Y239586D01*
X124728Y239585D01*
D02*
G37*
G36*
X224558Y239045D02*
X224807Y239045D01*
X225159Y238693D01*
X225158Y238195D01*
X224806Y237844D01*
X224558Y237844D01*
X224309Y237844D01*
X223958Y238196D01*
X223958Y238693D01*
X224310Y239045D01*
X224558Y239045D01*
D02*
G37*
G36*
X84264Y235124D02*
X76264D01*
Y238124D01*
X84264D01*
Y235124D01*
D02*
G37*
G36*
X108140Y234870D02*
X100140D01*
Y237870D01*
X108140D01*
Y234870D01*
D02*
G37*
G36*
X184474Y235052D02*
Y233452D01*
X180474D01*
Y235052D01*
Y239552D01*
X184474D01*
Y235052D01*
D02*
G37*
G36*
X174974D02*
Y233452D01*
X170974D01*
Y235052D01*
Y239552D01*
X174974D01*
Y235052D01*
D02*
G37*
G36*
X165474D02*
Y233452D01*
X161474D01*
Y235052D01*
Y239552D01*
X165474D01*
Y235052D01*
D02*
G37*
G36*
X149934Y235298D02*
Y232698D01*
X146433D01*
Y235298D01*
Y239298D01*
X149934D01*
Y235298D01*
D02*
G37*
G36*
X140434D02*
Y232698D01*
X136934D01*
Y235298D01*
Y239298D01*
X140434D01*
Y235298D01*
D02*
G37*
G36*
X130934D02*
Y232698D01*
X127434D01*
Y235298D01*
Y239298D01*
X130934D01*
Y235298D01*
D02*
G37*
G36*
X84264Y222124D02*
X76264D01*
Y225124D01*
X84264D01*
Y222124D01*
D02*
G37*
G36*
X108140Y221870D02*
X100140D01*
Y224870D01*
X108140D01*
Y221870D01*
D02*
G37*
G36*
X271700Y220506D02*
X272049Y220167D01*
X272056Y219923D01*
X272056Y219923D01*
X272048Y219680D01*
X271699Y219341D01*
X271445Y219341D01*
Y214924D01*
X268945D01*
Y219924D01*
X270856D01*
X270863Y220167D01*
X271213Y220506D01*
X271700Y220506D01*
D02*
G37*
G36*
X281294Y220922D02*
X281294Y220673D01*
X283694D01*
Y219173D01*
X280694D01*
Y220073D01*
X280694D01*
X280445Y220073D01*
X280093Y220424D01*
X280093Y220922D01*
X280445Y221274D01*
X280693Y221274D01*
X280942Y221274D01*
X281294Y220922D01*
D02*
G37*
G36*
X77633Y219998D02*
X77982Y219659D01*
X77989Y219415D01*
X77989Y219415D01*
X77982Y219172D01*
X77633Y218833D01*
X77379Y218833D01*
Y214416D01*
X74879D01*
Y219416D01*
X76790D01*
X76797Y219659D01*
X77147Y219998D01*
X77633Y219998D01*
D02*
G37*
G36*
X263942Y214924D02*
X261442D01*
Y219924D01*
X263942D01*
Y214924D01*
D02*
G37*
G36*
X283694Y214673D02*
X280694D01*
Y216173D01*
X283694D01*
Y214673D01*
D02*
G37*
G36*
X69875Y214416D02*
X67375D01*
Y219416D01*
X69875D01*
Y214416D01*
D02*
G37*
G36*
X184474Y215952D02*
Y211552D01*
X180474D01*
Y215952D01*
Y217652D01*
X184474D01*
Y215952D01*
D02*
G37*
G36*
X165474D02*
Y211552D01*
X161474D01*
Y215952D01*
Y217652D01*
X165474D01*
Y215952D01*
D02*
G37*
G36*
X149934Y215198D02*
Y211298D01*
X146433D01*
Y215198D01*
Y217898D01*
X149934D01*
Y215198D01*
D02*
G37*
G36*
X130934D02*
Y211298D01*
X127434D01*
Y215198D01*
Y217898D01*
X130934D01*
Y215198D01*
D02*
G37*
G36*
X423028Y204384D02*
X403528D01*
Y225384D01*
X423028D01*
Y204384D01*
D02*
G37*
G36*
X401029D02*
X391029D01*
Y225384D01*
X401029D01*
Y204384D01*
D02*
G37*
G36*
X391277Y200483D02*
X391628Y200131D01*
X391628Y199883D01*
X391627Y199634D01*
X391276Y199283D01*
X390779Y199283D01*
X390427Y199635D01*
X390428Y199884D01*
X390428Y200132D01*
X390779Y200483D01*
X391277Y200483D01*
D02*
G37*
G36*
X160745Y198701D02*
X161096Y198350D01*
X161096Y198101D01*
X161096Y197853D01*
X160744Y197502D01*
X160247Y197502D01*
X159896Y197854D01*
X159896Y198102D01*
X159896Y198350D01*
X160248Y198701D01*
X160745Y198701D01*
D02*
G37*
G36*
X129666Y193104D02*
X126666D01*
Y201104D01*
X129666D01*
Y193104D01*
D02*
G37*
G36*
X116666D02*
X113666D01*
Y201104D01*
X116666D01*
Y193104D01*
D02*
G37*
G36*
X132615Y193404D02*
X132966Y193052D01*
X132966Y192804D01*
X132965Y192556D01*
X132614Y192204D01*
X132117Y192205D01*
X131766Y192556D01*
X131766Y192805D01*
X131767Y193053D01*
X132118Y193404D01*
X132615Y193404D01*
D02*
G37*
G36*
X179196Y189802D02*
X176196D01*
Y197802D01*
X179196D01*
Y189802D01*
D02*
G37*
G36*
X166196D02*
X163196D01*
Y197802D01*
X166196D01*
Y189802D01*
D02*
G37*
G36*
X221530Y176866D02*
X221870Y176516D01*
Y176030D01*
X221530Y175681D01*
X221288Y175674D01*
Y170274D01*
X196288D01*
Y176274D01*
X220705D01*
Y176516D01*
X221044Y176866D01*
X221287Y176873D01*
X221287D01*
X221530Y176866D01*
D02*
G37*
G36*
X424146Y148528D02*
X413146D01*
Y172528D01*
X424146D01*
Y148528D01*
D02*
G37*
G36*
X148567Y149143D02*
X148815Y149143D01*
X149167Y148791D01*
X149167Y148294D01*
X148815Y147942D01*
X148566Y147942D01*
Y147042D01*
X145566D01*
Y148542D01*
X147966D01*
X147966Y148791D01*
X148318Y149143D01*
X148567Y149143D01*
D02*
G37*
G36*
X399146Y148528D02*
X388745D01*
X388740Y148284D01*
X388390Y147942D01*
X387900D01*
X387551Y148284D01*
X387546Y148529D01*
X387551Y148774D01*
X387900Y149116D01*
X388146D01*
Y172528D01*
X399146D01*
Y148528D01*
D02*
G37*
G36*
X221288Y144274D02*
X196288D01*
Y150274D01*
X221288D01*
Y144274D01*
D02*
G37*
G36*
X148566Y142542D02*
X145566D01*
Y144042D01*
X148566D01*
Y142542D01*
D02*
G37*
G36*
X252156Y141053D02*
X240156D01*
Y153053D01*
X252156D01*
Y141053D01*
D02*
G37*
G36*
X109156D02*
X97156D01*
Y153053D01*
X109156D01*
Y141053D01*
D02*
G37*
G36*
X169137Y140486D02*
X167637D01*
Y143486D01*
X169137D01*
Y140486D01*
D02*
G37*
G36*
X173637Y141067D02*
X173880Y141067D01*
X174229Y140729D01*
X174236Y140485D01*
X174229Y140242D01*
X173880Y139903D01*
X173394Y139903D01*
X173044Y140242D01*
X173037Y140485D01*
X173037Y140485D01*
X173037Y140486D01*
X172137D01*
Y143486D01*
X173637D01*
Y141067D01*
D02*
G37*
G36*
X124412Y138454D02*
X122912D01*
Y141454D01*
X124412D01*
Y138454D01*
D02*
G37*
G36*
X119005Y141698D02*
X119012Y141455D01*
X119012Y141455D01*
X119012Y141454D01*
X119912D01*
Y138454D01*
X118412D01*
Y140873D01*
X118169Y140872D01*
X117820Y141211D01*
X117813Y141455D01*
X117820Y141698D01*
X118169Y142037D01*
X118656Y142037D01*
X119005Y141698D01*
D02*
G37*
G36*
X233156Y112104D02*
X231156D01*
Y119105D01*
X233156D01*
Y112104D01*
D02*
G37*
G36*
X228155D02*
X226155D01*
Y119105D01*
X228155D01*
Y112104D01*
D02*
G37*
G36*
X223156D02*
X221156D01*
Y119105D01*
X223156D01*
Y112104D01*
D02*
G37*
G36*
X218155D02*
X216155D01*
Y119105D01*
X218155D01*
Y112104D01*
D02*
G37*
G36*
X213156D02*
X211156D01*
Y119105D01*
X213156D01*
Y112104D01*
D02*
G37*
G36*
X208155D02*
X206155D01*
Y119105D01*
X208155D01*
Y112104D01*
D02*
G37*
G36*
X203156D02*
X201156D01*
Y119105D01*
X203156D01*
Y112104D01*
D02*
G37*
G36*
X198155D02*
X196155D01*
Y119105D01*
X198155D01*
Y112104D01*
D02*
G37*
G36*
X193156D02*
X191156D01*
Y119105D01*
X193156D01*
Y112104D01*
D02*
G37*
G36*
X188155D02*
X186155D01*
Y119105D01*
X188155D01*
Y112104D01*
D02*
G37*
G36*
X183156D02*
X181156D01*
Y119105D01*
X183156D01*
Y112104D01*
D02*
G37*
G36*
X178155D02*
X176155D01*
Y119105D01*
X178155D01*
Y112104D01*
D02*
G37*
G36*
X173156D02*
X171156D01*
Y119105D01*
X173156D01*
Y112104D01*
D02*
G37*
G36*
X168155D02*
X166155D01*
Y119105D01*
X168155D01*
Y112104D01*
D02*
G37*
G36*
X163156D02*
X161156D01*
Y119105D01*
X163156D01*
Y112104D01*
D02*
G37*
G36*
X158155D02*
X156155D01*
Y119105D01*
X158155D01*
Y112104D01*
D02*
G37*
G36*
X153156D02*
X151156D01*
Y119105D01*
X153156D01*
Y112104D01*
D02*
G37*
G36*
X148155D02*
X146155D01*
Y119105D01*
X148155D01*
Y112104D01*
D02*
G37*
G36*
X143156D02*
X141156D01*
Y119105D01*
X143156D01*
Y112104D01*
D02*
G37*
G36*
X138155D02*
X136155D01*
Y119105D01*
X138155D01*
Y112104D01*
D02*
G37*
G36*
X133156D02*
X131156D01*
Y119105D01*
X133156D01*
Y112104D01*
D02*
G37*
G36*
X128155D02*
X126155D01*
Y119105D01*
X128155D01*
Y112104D01*
D02*
G37*
G36*
X123156D02*
X121156D01*
Y119105D01*
X123156D01*
Y112104D01*
D02*
G37*
G36*
X118155Y112104D02*
X116155D01*
Y119104D01*
X118155D01*
Y112104D01*
D02*
G37*
G36*
X97743Y112344D02*
X97754Y112104D01*
X97754Y112104D01*
X97743Y111864D01*
X97396Y111532D01*
X96915Y111532D01*
X96567Y111864D01*
X96556Y112104D01*
X96556Y112104D01*
X96567Y112344D01*
X96915Y112676D01*
X97395Y112676D01*
X97743Y112344D01*
D02*
G37*
G36*
X153139Y103169D02*
X153387Y103169D01*
X153739Y102817D01*
X153739Y102319D01*
X153387Y101968D01*
X153138Y101968D01*
Y101068D01*
X150138D01*
Y102568D01*
X152538D01*
X152538Y102817D01*
X152890Y103169D01*
X153139Y103169D01*
D02*
G37*
G36*
X133466Y103196D02*
X133466Y102947D01*
X135866D01*
Y101447D01*
X132866D01*
Y102346D01*
X132866D01*
X132617Y102346D01*
X132265Y102698D01*
X132265Y103195D01*
X132617Y103547D01*
X132865Y103547D01*
X133114Y103547D01*
X133466Y103196D01*
D02*
G37*
G36*
X122798Y102942D02*
X122798Y102692D01*
X125198D01*
Y101193D01*
X122198D01*
Y102093D01*
X122198D01*
X121949Y102092D01*
X121597Y102444D01*
X121597Y102941D01*
X121949Y103293D01*
X122197Y103293D01*
X122446Y103294D01*
X122798Y102942D01*
D02*
G37*
G36*
X163298Y100814D02*
X160298D01*
Y102314D01*
X163298D01*
Y100814D01*
D02*
G37*
G36*
X135866Y96946D02*
X132866D01*
Y98446D01*
X135866D01*
Y96946D01*
D02*
G37*
G36*
X163298Y96314D02*
X160879D01*
X160879Y96072D01*
X160541Y95722D01*
X160297Y95715D01*
X160054Y95722D01*
X159715Y96071D01*
X159715Y96558D01*
X160054Y96907D01*
X160297Y96914D01*
X160297Y96914D01*
X160298Y96914D01*
Y97814D01*
X163298D01*
Y96314D01*
D02*
G37*
G36*
X125198Y96692D02*
X122198D01*
Y98192D01*
X125198D01*
Y96692D01*
D02*
G37*
G36*
X153138Y96568D02*
X150138D01*
Y98068D01*
X153138D01*
Y96568D01*
D02*
G37*
G36*
X423790Y96434D02*
X404290D01*
Y117434D01*
X423790D01*
Y96434D01*
D02*
G37*
G36*
X401791D02*
X391791D01*
Y117434D01*
X401791D01*
Y96434D01*
D02*
G37*
G36*
X392039Y92533D02*
X392390Y92181D01*
X392390Y91933D01*
X392389Y91684D01*
X392038Y91333D01*
X391540Y91333D01*
X391189Y91685D01*
X391189Y91934D01*
X391190Y92182D01*
X391541Y92534D01*
X392039Y92533D01*
D02*
G37*
G36*
X437794Y51410D02*
X431394D01*
Y57810D01*
X437794D01*
Y51410D01*
D02*
G37*
G36*
X412394D02*
X405994D01*
Y57810D01*
X412394D01*
Y51410D01*
D02*
G37*
G36*
X386994D02*
X380594D01*
Y57810D01*
X386994D01*
Y51410D01*
D02*
G37*
G36*
X371684Y42351D02*
X371694Y42110D01*
X371694Y42110D01*
X371684Y41869D01*
X371336Y41535D01*
X370853Y41535D01*
X370505Y41869D01*
X370495Y42110D01*
X370495Y42110D01*
X370505Y42351D01*
X370853Y42685D01*
X371336Y42685D01*
X371684Y42351D01*
D02*
G37*
D13*
X280694Y214673D02*
Y220673D01*
Y214673D02*
X283694D01*
Y220673D01*
X280694D02*
X283694D01*
X281314Y404660D02*
X298314D01*
X281314Y377660D02*
Y404660D01*
Y377660D02*
X298314D01*
Y404660D01*
X45436Y373748D02*
Y419748D01*
X73436D01*
Y373748D02*
Y419748D01*
X45436Y373748D02*
X73436D01*
X195558Y256944D02*
X224558D01*
X195558Y243944D02*
Y256944D01*
Y243944D02*
X224558D01*
Y256944D01*
X392028Y199884D02*
Y229884D01*
X422028D01*
Y199884D02*
Y229884D01*
X392028Y199884D02*
X422028D01*
X388146Y148528D02*
X424146D01*
Y172528D01*
X388146D02*
X424146D01*
X388146Y148528D02*
Y172528D01*
X252867Y282805D02*
Y487805D01*
X98867D02*
X252867D01*
X98867Y282805D02*
Y487805D01*
Y282805D02*
X252867D01*
X258376Y443756D02*
Y488756D01*
X317376D01*
Y443756D02*
Y488756D01*
X258376Y443756D02*
X317376D01*
X252156Y117104D02*
Y166104D01*
X97156Y117104D02*
X252156D01*
X97156D02*
Y166104D01*
X252156D01*
X294768Y281918D02*
X310768D01*
Y310918D01*
X294768D02*
X310768D01*
X294768Y281918D02*
Y310918D01*
X371094Y249374D02*
Y274374D01*
X447294D01*
Y249374D02*
Y274374D01*
X371094Y249374D02*
X447294D01*
X293864Y240778D02*
Y270778D01*
Y240778D02*
X323864D01*
Y270778D01*
X293864D02*
X323864D01*
X124184Y217548D02*
X153184D01*
Y233048D01*
X124184D02*
X153184D01*
X124184Y217548D02*
Y233048D01*
X47596Y484272D02*
X83596D01*
Y439272D02*
Y484272D01*
X47596Y439272D02*
X83596D01*
X47596D02*
Y484272D01*
X196288Y176274D02*
X221288D01*
X196288Y144274D02*
Y176274D01*
Y144274D02*
X221288D01*
Y176274D01*
X245174Y244364D02*
X253174D01*
Y260364D01*
X245174D02*
X253174D01*
X245174Y244364D02*
Y260364D01*
X158474Y217552D02*
Y233552D01*
Y217552D02*
X187474D01*
Y233552D01*
X158474D02*
X187474D01*
X179196Y189802D02*
Y197802D01*
X163196D02*
X179196D01*
X163196Y189802D02*
Y197802D01*
Y189802D02*
X179196D01*
X232434Y255600D02*
X235434D01*
X232434Y249601D02*
Y255600D01*
Y249601D02*
X235434D01*
Y255600D01*
X186650Y253074D02*
Y263074D01*
X181650Y253074D02*
X186650D01*
X181650D02*
Y263074D01*
X186650D01*
X160298Y96314D02*
X163298D01*
Y102314D01*
X160298D02*
X163298D01*
X160298Y96314D02*
Y102314D01*
X80034Y410670D02*
X83034D01*
X80034Y404670D02*
Y410670D01*
Y404670D02*
X83034D01*
Y410670D01*
X326160Y294338D02*
X329160D01*
X326160Y288338D02*
Y294338D01*
Y288338D02*
X329160D01*
Y294338D01*
X268796Y244730D02*
X276796D01*
Y260730D01*
X268796D02*
X276796D01*
X268796Y244730D02*
Y260730D01*
X100140Y221870D02*
X108140D01*
Y237870D01*
X100140D02*
X108140D01*
X100140Y221870D02*
Y237870D01*
X113666Y193104D02*
Y201104D01*
Y193104D02*
X129666D01*
Y201104D01*
X113666D02*
X129666D01*
X76264Y222124D02*
X84264D01*
Y238124D01*
X76264D02*
X84264D01*
X76264Y222124D02*
Y238124D01*
X173637Y140486D02*
Y143486D01*
X167637D02*
X173637D01*
X167637Y140486D02*
Y143486D01*
Y140486D02*
X173637D01*
X118412Y138454D02*
Y141454D01*
Y138454D02*
X124412D01*
Y141454D01*
X118412D02*
X124412D01*
X392790Y91934D02*
Y121934D01*
X422790D01*
Y91934D02*
Y121934D01*
X392790Y91934D02*
X422790D01*
X265454Y395272D02*
Y401272D01*
X268454D01*
Y395272D02*
Y401272D01*
X265454Y395272D02*
X268454D01*
X83288Y388036D02*
Y394035D01*
X80288Y388036D02*
X83288D01*
X80288D02*
Y394035D01*
X83288D01*
X132866Y102947D02*
X135866D01*
Y96946D02*
Y102947D01*
X132866Y96946D02*
X135866D01*
X132866D02*
Y102947D01*
X122198Y102692D02*
X125198D01*
Y96692D02*
Y102692D01*
X122198Y96692D02*
X125198D01*
X122198D02*
Y102692D01*
X150138Y102568D02*
X153138D01*
X150138Y96568D02*
Y102568D01*
Y96568D02*
X153138D01*
Y102568D01*
X145566Y148542D02*
X148566D01*
X145566Y142542D02*
Y148542D01*
Y142542D02*
X148566D01*
Y148542D01*
X67390Y219416D02*
X77390D01*
X67390Y214416D02*
Y219416D01*
Y214416D02*
X77390D01*
Y219416D01*
X261456Y219924D02*
X271456D01*
X261456Y214924D02*
Y219924D01*
Y214924D02*
X271456D01*
Y219924D01*
X371094Y42110D02*
Y67110D01*
X447294D01*
Y42110D02*
Y67110D01*
X371094Y42110D02*
X447294D01*
M02*
