G04*
G04 #@! TF.GenerationSoftware,Altium Limited,Altium Designer,24.2.2 (26)*
G04*
G04 Layer_Color=8388736*
%FSLAX44Y44*%
%MOMM*%
G71*
G04*
G04 #@! TF.SameCoordinates,B64C3CBE-EE26-4C86-9773-21E75D238B38*
G04*
G04*
G04 #@! TF.FilePolarity,Positive*
G04*
G01*
G75*
%ADD10C,0.2540*%
%ADD88C,0.2000*%
%ADD89C,0.3000*%
%ADD91C,0.4000*%
G36*
X396590Y105634D02*
X384590D01*
Y107634D01*
X396590D01*
Y105634D01*
D02*
G37*
G36*
X423190Y109134D02*
Y107864D01*
X427970D01*
Y105864D01*
X423190D01*
Y101134D01*
X421190D01*
Y105864D01*
X415970D01*
Y107864D01*
X421190D01*
Y113134D01*
X423190D01*
Y109134D01*
D02*
G37*
G36*
X429691Y90424D02*
X419691D01*
X429691Y100424D01*
Y90424D01*
D02*
G37*
G36*
X395829Y213584D02*
X383829D01*
Y215584D01*
X395829D01*
Y213584D01*
D02*
G37*
G36*
X422428Y217084D02*
Y215814D01*
X427208D01*
Y213814D01*
X422428D01*
Y209084D01*
X420428D01*
Y213814D01*
X415208D01*
Y215814D01*
X420428D01*
Y221084D01*
X422428D01*
Y217084D01*
D02*
G37*
G36*
X428928Y198374D02*
X418928D01*
X428928Y208374D01*
Y198374D01*
D02*
G37*
G36*
X317086Y463296D02*
X313276D01*
Y482346D01*
X263746D01*
Y463296D01*
X258666D01*
Y488696D01*
X317086D01*
Y463296D01*
D02*
G37*
G36*
X318356Y444246D02*
X291206D01*
Y449326D01*
X312796D01*
Y456946D01*
X317876D01*
X318356Y444246D01*
D02*
G37*
G36*
X263746Y449326D02*
X285336D01*
Y444246D01*
X258666D01*
Y456946D01*
X263746D01*
Y449326D01*
D02*
G37*
G36*
X82315Y482849D02*
X82673Y482491D01*
X82866Y482025D01*
Y481772D01*
Y441772D01*
Y441519D01*
X82673Y441053D01*
X82315Y440695D01*
X81849Y440502D01*
X75070D01*
X74326Y441246D01*
Y442298D01*
X75070Y443042D01*
X80326D01*
Y480502D01*
X75070D01*
X74326Y481246D01*
Y482298D01*
X75070Y483042D01*
X81849D01*
X82315Y482849D01*
D02*
G37*
G36*
X65866Y482298D02*
Y481246D01*
X65122Y480502D01*
X50866D01*
Y443042D01*
X65122D01*
X65866Y442298D01*
Y441246D01*
X65122Y440502D01*
X49343D01*
X48877Y440695D01*
X48519Y441053D01*
X48326Y441519D01*
Y441772D01*
Y481772D01*
Y482025D01*
X48519Y482491D01*
X48877Y482849D01*
X49343Y483042D01*
X65122D01*
X65866Y482298D01*
D02*
G37*
G36*
X291084Y401320D02*
X288544D01*
Y410210D01*
X291084D01*
Y401320D01*
D02*
G37*
G36*
Y376446D02*
X294178D01*
Y373906D01*
X291084D01*
Y370840D01*
X288544D01*
Y373906D01*
X285288D01*
Y376446D01*
X288544D01*
Y379730D01*
X291084D01*
Y376446D01*
D02*
G37*
D10*
X110927Y110805D02*
G03*
X110927Y110805I-1270J0D01*
G01*
X261445Y243665D02*
G03*
X261445Y243665I-1270J0D01*
G01*
X181166Y204803D02*
G03*
X181166Y204803I-1270J0D01*
G01*
X285067Y244030D02*
G03*
X285067Y244030I-1270J0D01*
G01*
X116411Y221171D02*
G03*
X116411Y221171I-1270J0D01*
G01*
X114236Y186103D02*
G03*
X114236Y186103I-1270J0D01*
G01*
X92535Y221425D02*
G03*
X92535Y221425I-1270J0D01*
G01*
D88*
X289768Y286418D02*
G03*
X289768Y286418I-1001J0D01*
G01*
X130185Y242923D02*
G03*
X130185Y242923I-1001J0D01*
G01*
D89*
X220957Y232918D02*
G03*
X220957Y232918I-1501J0D01*
G01*
X164315Y243332D02*
G03*
X164315Y243332I-1501J0D01*
G01*
D91*
X253865Y419054D02*
G03*
X253865Y419054I-1999J0D01*
G01*
M02*
