G04*
G04 #@! TF.GenerationSoftware,Altium Limited,Altium Designer,24.2.2 (26)*
G04*
G04 Layer_Physical_Order=2*
G04 Layer_Color=16711680*
%FSLAX44Y44*%
%MOMM*%
G71*
G04*
G04 #@! TF.SameCoordinates,B64C3CBE-EE26-4C86-9773-21E75D238B38*
G04*
G04*
G04 #@! TF.FilePolarity,Positive*
G04*
G01*
G75*
%ADD10C,0.2540*%
%ADD36R,0.3240X0.3031*%
%ADD38C,0.5080*%
%ADD39C,1.6000*%
%ADD40R,1.7000X1.7000*%
%ADD41C,1.7000*%
%ADD42C,1.5748*%
%ADD43R,1.5748X1.5748*%
%ADD44C,1.1500*%
%ADD45C,1.5000*%
%ADD46C,0.6000*%
%ADD47R,1.2000X1.0000*%
%ADD48R,0.9000X1.5000*%
%AMCUSTOMSHAPE49*
4,1,5,0.4572,-0.1588,0.4572,0.5778,-0.4572,0.5778,-0.4572,-0.1588,0.0000,-0.5778,0.4572,-0.1588,0.0*%
%ADD49CUSTOMSHAPE49*%

%AMCUSTOMSHAPE50*
4,1,5,-0.4572,0.5525,-0.4572,-0.5525,0.4572,-0.5525,0.4572,0.5525,0.0000,0.1333,-0.4572,0.5525,0.0*%
%ADD50CUSTOMSHAPE50*%

%ADD51R,0.8000X1.0000*%
%ADD52R,0.7901X0.5400*%
%ADD53R,0.8000X0.4000*%
%ADD54R,0.4000X0.8000*%
%ADD55R,0.8000X0.8000*%
%ADD56R,1.2000X1.2000*%
%ADD57R,1.1000X0.5500*%
%ADD58R,1.3000X2.7200*%
%ADD59R,0.4900X1.1570*%
%ADD60R,0.4900X1.1750*%
%ADD61R,2.7000X1.6350*%
%ADD62R,0.9000X0.8000*%
%ADD63R,0.6000X1.0000*%
%ADD64R,0.8000X0.9000*%
%ADD65R,0.5400X0.5657*%
%ADD66R,0.3240X0.3684*%
%ADD67R,0.3684X0.3240*%
G36*
X332225Y171959D02*
X332225Y171958D01*
Y132588D01*
X332225Y132587D01*
Y91447D01*
X151320D01*
X150956Y92139D01*
X150865Y92717D01*
X152515Y94367D01*
X154528D01*
Y99431D01*
X158908D01*
Y98945D01*
X164688D01*
Y105169D01*
X158908D01*
Y104610D01*
X154528D01*
Y104769D01*
X151643D01*
X151392Y104819D01*
X146355D01*
X145298Y105876D01*
X143729Y106526D01*
X142030D01*
X140461Y105876D01*
X139260Y104675D01*
X138609Y103106D01*
Y101407D01*
X139260Y99838D01*
X139997Y99100D01*
X140374Y98410D01*
X140006Y97450D01*
X139382Y96827D01*
X138732Y95257D01*
Y93559D01*
X139080Y92717D01*
X138265Y91447D01*
X42679D01*
Y488689D01*
X332225D01*
Y171959D01*
D02*
G37*
%LPC*%
G36*
X70520Y461293D02*
X68672D01*
X66886Y460814D01*
X65286Y459890D01*
X63979Y458583D01*
X63054Y456982D01*
X62576Y455197D01*
Y453348D01*
X63028Y451661D01*
X57569Y446202D01*
X57008Y445362D01*
X56811Y444371D01*
Y439751D01*
X56789Y439719D01*
X56592Y438728D01*
Y367640D01*
X56789Y366648D01*
X57351Y365808D01*
X64935Y358224D01*
X65775Y357663D01*
X66766Y357465D01*
X100846D01*
Y356785D01*
X111386D01*
Y363325D01*
X100846D01*
Y362645D01*
X67839D01*
X62775Y367709D01*
X63301Y368979D01*
X72707D01*
Y386519D01*
X69526D01*
Y390861D01*
X78898D01*
Y385834D01*
X79198D01*
Y382671D01*
X78168Y381641D01*
X77518Y380071D01*
Y378373D01*
X78168Y376803D01*
X79369Y375602D01*
X80939Y374952D01*
X82637D01*
X84207Y375602D01*
X85408Y376803D01*
X86058Y378373D01*
Y380071D01*
X85408Y381641D01*
X84378Y382671D01*
Y385834D01*
X84678D01*
Y396237D01*
X84251D01*
Y401815D01*
X84424D01*
Y402337D01*
X89459D01*
X90450Y402534D01*
X91290Y403096D01*
X94541Y406347D01*
X95103Y407187D01*
X95300Y408178D01*
Y416503D01*
X95761Y416965D01*
X100846D01*
Y416285D01*
X111386D01*
Y422825D01*
X100846D01*
Y422144D01*
X94689D01*
X93698Y421947D01*
X92857Y421386D01*
X90879Y419407D01*
X90317Y418567D01*
X90120Y417576D01*
Y409251D01*
X88386Y407517D01*
X84424D01*
Y408039D01*
X78644D01*
Y401815D01*
X79071D01*
Y396237D01*
X78898D01*
Y396041D01*
X72186D01*
Y406977D01*
X72707D01*
Y424517D01*
X61772D01*
Y437924D01*
X61793Y437956D01*
X61990Y438947D01*
Y443298D01*
X66593Y447900D01*
X66886Y447731D01*
X68672Y447253D01*
X70520D01*
X72306Y447731D01*
X73906Y448655D01*
X75213Y449962D01*
X76138Y451563D01*
X76616Y453348D01*
Y455197D01*
X76138Y456982D01*
X75213Y458583D01*
X73906Y459890D01*
X72306Y460814D01*
X70520Y461293D01*
D02*
G37*
G36*
X111386Y414326D02*
X100846D01*
Y407786D01*
X111386D01*
Y414326D01*
D02*
G37*
G36*
X234021Y406860D02*
X232323D01*
X230753Y406210D01*
X229552Y405009D01*
X228902Y403439D01*
Y401982D01*
X216101Y389181D01*
X215539Y388341D01*
X215342Y387350D01*
Y307741D01*
X214312Y306711D01*
X213662Y305141D01*
Y303443D01*
X214312Y301873D01*
X215513Y300672D01*
X217083Y300022D01*
X218781D01*
X220351Y300672D01*
X221552Y301873D01*
X222202Y303443D01*
Y305141D01*
X221552Y306711D01*
X220522Y307741D01*
Y386277D01*
X232565Y398320D01*
X234021D01*
X235591Y398970D01*
X236603Y399982D01*
X240348D01*
Y399284D01*
X250888D01*
Y399965D01*
X263910D01*
X264064Y399811D01*
Y396666D01*
X264043Y396645D01*
X250888D01*
Y397326D01*
X240348D01*
Y396645D01*
X235306D01*
X234314Y396448D01*
X233474Y395887D01*
X229309Y391721D01*
X228747Y390881D01*
X228550Y389890D01*
Y364637D01*
X227520Y363607D01*
X226870Y362037D01*
Y360339D01*
X227520Y358769D01*
X228721Y357568D01*
X229360Y357303D01*
Y355929D01*
X228721Y355664D01*
X227520Y354463D01*
X226870Y352893D01*
Y351195D01*
X227520Y349625D01*
X228721Y348424D01*
X229054Y348286D01*
Y346912D01*
X228721Y346774D01*
X227520Y345573D01*
X226870Y344003D01*
Y342305D01*
X227520Y340735D01*
X228721Y339534D01*
X228747Y339523D01*
Y338149D01*
X228721Y338138D01*
X227520Y336937D01*
X226870Y335367D01*
Y333669D01*
X227520Y332099D01*
X228557Y331063D01*
X228649Y330327D01*
X228557Y329591D01*
X227520Y328555D01*
X226870Y326985D01*
Y325287D01*
X227520Y323717D01*
X228721Y322516D01*
X228747Y322505D01*
Y321131D01*
X228721Y321120D01*
X227520Y319919D01*
X226870Y318349D01*
Y316651D01*
X227520Y315081D01*
X228377Y314224D01*
X228597Y313436D01*
X228377Y312648D01*
X227520Y311791D01*
X226870Y310221D01*
Y308523D01*
X227520Y306953D01*
X228721Y305752D01*
X228747Y305741D01*
Y304367D01*
X228721Y304356D01*
X227520Y303155D01*
X226870Y301585D01*
Y299887D01*
X227520Y298317D01*
X228721Y297116D01*
X230291Y296466D01*
X231989D01*
X233559Y297116D01*
X234499Y298056D01*
X240348D01*
Y297286D01*
X250888D01*
Y303826D01*
X240348D01*
Y303236D01*
X234679D01*
X233559Y304356D01*
X233533Y304367D01*
Y305725D01*
X234437Y306623D01*
X240348D01*
Y305784D01*
X250888D01*
Y312325D01*
X240348D01*
Y311803D01*
X234748D01*
X233903Y312648D01*
X233683Y313436D01*
X233903Y314224D01*
X234617Y314938D01*
X240348D01*
Y314286D01*
X250888D01*
Y320826D01*
X240348D01*
Y320118D01*
X234561D01*
X233559Y321120D01*
X233533Y321131D01*
Y322505D01*
X233559Y322516D01*
X234548Y323506D01*
X240348D01*
Y322785D01*
X250888D01*
Y329325D01*
X240348D01*
Y328685D01*
X234629D01*
X233723Y329591D01*
X233631Y330327D01*
X233723Y331063D01*
X234608Y331947D01*
X240348D01*
Y331286D01*
X250888D01*
Y337826D01*
X240348D01*
Y337127D01*
X234570D01*
X233559Y338138D01*
X233533Y338149D01*
Y339523D01*
X233559Y339534D01*
X234539Y340515D01*
X240348D01*
Y339785D01*
X250888D01*
Y346325D01*
X240348D01*
Y345694D01*
X234638D01*
X233559Y346774D01*
X233226Y346912D01*
Y348286D01*
X233559Y348424D01*
X234345Y349210D01*
X240348D01*
Y348286D01*
X250888D01*
Y354826D01*
X240348D01*
Y354390D01*
X234790D01*
X234760Y354463D01*
X233559Y355664D01*
X232920Y355929D01*
Y357303D01*
X233559Y357568D01*
X234760Y358769D01*
X235410Y360339D01*
Y362037D01*
X234760Y363607D01*
X233730Y364637D01*
Y388817D01*
X236378Y391466D01*
X240348D01*
Y390786D01*
X250888D01*
Y391466D01*
X265116D01*
X266107Y391663D01*
X266947Y392224D01*
X267794Y393071D01*
X269844D01*
Y403473D01*
X267726D01*
X266814Y404386D01*
X265974Y404947D01*
X264983Y405144D01*
X250888D01*
Y405824D01*
X240348D01*
Y405162D01*
X236639D01*
X235591Y406210D01*
X234021Y406860D01*
D02*
G37*
G36*
X250888Y388824D02*
X240348D01*
Y382284D01*
X250888D01*
Y388824D01*
D02*
G37*
G36*
X111386D02*
X100846D01*
Y382284D01*
X111386D01*
Y388824D01*
D02*
G37*
G36*
X319619Y428704D02*
X317921D01*
X316351Y428054D01*
X315150Y426853D01*
X314500Y425283D01*
Y423585D01*
X314885Y422654D01*
Y387181D01*
X307250Y379546D01*
X297084D01*
Y381931D01*
X282544D01*
Y369391D01*
X297084D01*
Y371776D01*
X308859D01*
X310345Y372072D01*
X311606Y372914D01*
X321517Y382825D01*
X322359Y384085D01*
X322655Y385572D01*
Y422654D01*
X323040Y423585D01*
Y425283D01*
X322390Y426853D01*
X321189Y428054D01*
X319619Y428704D01*
D02*
G37*
G36*
X250888Y380325D02*
X240348D01*
Y373785D01*
X250888D01*
Y380325D01*
D02*
G37*
G36*
X111386D02*
X100846D01*
Y373785D01*
X111386D01*
Y380325D01*
D02*
G37*
G36*
X250888Y371824D02*
X240348D01*
Y365284D01*
X250888D01*
Y371824D01*
D02*
G37*
G36*
X111386D02*
X100846D01*
Y365284D01*
X111386D01*
Y371824D01*
D02*
G37*
G36*
X250888Y363325D02*
X240348D01*
Y356785D01*
X250888D01*
Y363325D01*
D02*
G37*
G36*
X111386Y354826D02*
X100846D01*
Y348286D01*
X111386D01*
Y354826D01*
D02*
G37*
G36*
Y346325D02*
X100846D01*
Y339785D01*
X111386D01*
Y346325D01*
D02*
G37*
G36*
Y337826D02*
X100846D01*
Y331286D01*
X111386D01*
Y337826D01*
D02*
G37*
G36*
X90257Y330660D02*
X88559D01*
X86989Y330010D01*
X85788Y328809D01*
X85138Y327239D01*
Y325541D01*
X85788Y323971D01*
X86989Y322770D01*
X88559Y322120D01*
X90257D01*
X91827Y322770D01*
X92689Y323633D01*
X100846D01*
Y322785D01*
X111386D01*
Y329325D01*
X100846D01*
Y328812D01*
X93025D01*
X91827Y330010D01*
X90257Y330660D01*
D02*
G37*
G36*
X299096Y470026D02*
X296656D01*
X294298Y469394D01*
X292184Y468174D01*
X290458Y466448D01*
X289238Y464334D01*
X288606Y461976D01*
Y459536D01*
X289238Y457178D01*
X290458Y455064D01*
X292184Y453338D01*
X293991Y452295D01*
Y430803D01*
X287321Y424133D01*
X286479Y422873D01*
X286183Y421386D01*
Y412929D01*
X282544D01*
Y404883D01*
X273605Y395944D01*
X272763Y394684D01*
X272467Y393197D01*
Y366268D01*
X272763Y364781D01*
X273605Y363521D01*
X285929Y351197D01*
Y311312D01*
X261562D01*
X261310Y311208D01*
X261036D01*
X260840Y311126D01*
X260647Y310933D01*
X260394Y310828D01*
X260289Y310576D01*
X260096Y310382D01*
Y310109D01*
X259991Y309856D01*
Y292608D01*
X260192Y292124D01*
X260388Y291642D01*
X260392Y291640D01*
X260394Y291636D01*
X260878Y291436D01*
X261358Y291233D01*
X281817Y291115D01*
X282343Y290322D01*
Y272023D01*
X251764D01*
Y273384D01*
X251567Y274375D01*
X251005Y275215D01*
X249939Y276282D01*
X250142Y276773D01*
Y278471D01*
X249492Y280041D01*
X248291Y281242D01*
X246721Y281892D01*
X245023D01*
X243453Y281242D01*
X242252Y280041D01*
X241602Y278471D01*
Y276773D01*
X242252Y275203D01*
X243453Y274002D01*
X245023Y273352D01*
X245026Y273293D01*
X243832Y272023D01*
X238871D01*
X238437Y273293D01*
X239332Y274187D01*
X239982Y275757D01*
Y277455D01*
X239332Y279025D01*
X238131Y280226D01*
X238129Y280227D01*
Y284534D01*
X238637D01*
Y295074D01*
X232097D01*
Y284534D01*
X232950D01*
Y279882D01*
X232257Y279189D01*
X231521Y279097D01*
X230786Y279189D01*
X229749Y280226D01*
X229689Y280251D01*
Y284534D01*
X230138D01*
Y295074D01*
X223598D01*
Y284534D01*
X224509D01*
Y279824D01*
X223710Y279025D01*
X223445Y278386D01*
X222071D01*
X221806Y279025D01*
X220866Y279965D01*
Y284534D01*
X221636D01*
Y295074D01*
X215096D01*
Y284534D01*
X215686D01*
Y280145D01*
X215079Y279537D01*
X214249Y279167D01*
X213419Y279537D01*
X212731Y280226D01*
X212680Y280247D01*
Y284534D01*
X213137D01*
Y295074D01*
X206597D01*
Y284534D01*
X207500D01*
Y279833D01*
X206856Y279189D01*
X206121Y279097D01*
X205385Y279189D01*
X204349Y280226D01*
X204238Y280272D01*
Y284534D01*
X204636D01*
Y295074D01*
X198096D01*
Y284534D01*
X199058D01*
Y279773D01*
X198310Y279025D01*
X198172Y278692D01*
X196798D01*
X196660Y279025D01*
X195543Y280141D01*
Y284534D01*
X196137D01*
Y295074D01*
X189597D01*
Y284534D01*
X190364D01*
Y279968D01*
X189420Y279025D01*
X189155Y278386D01*
X187781D01*
X187516Y279025D01*
X186721Y279820D01*
Y284534D01*
X187636D01*
Y295074D01*
X181096D01*
Y284534D01*
X181541D01*
Y280252D01*
X181477Y280226D01*
X180276Y279025D01*
X179626Y277455D01*
Y275757D01*
X180276Y274187D01*
X181477Y272986D01*
X183047Y272336D01*
X184745D01*
X186315Y272986D01*
X187516Y274187D01*
X187781Y274826D01*
X189155D01*
X189420Y274187D01*
X190621Y272986D01*
X191209Y272743D01*
X192049Y272181D01*
X193040Y271984D01*
X194031Y272181D01*
X194871Y272743D01*
X195459Y272986D01*
X196660Y274187D01*
X196798Y274520D01*
X198172D01*
X198310Y274187D01*
X199511Y272986D01*
X201081Y272336D01*
X202162D01*
X202522Y271892D01*
X202773Y271080D01*
X202403Y269964D01*
X202419Y269739D01*
X202333Y269531D01*
Y253492D01*
X202351Y253450D01*
X201274Y252730D01*
X198427Y255577D01*
X197587Y256139D01*
X196596Y256336D01*
X189018D01*
X188120Y257234D01*
Y257844D01*
X188120Y259114D01*
Y266501D01*
X180180D01*
Y264992D01*
X81316D01*
X70408Y275901D01*
Y302711D01*
X82861Y315164D01*
X100846D01*
Y314286D01*
X111386D01*
Y320826D01*
X100846D01*
Y320344D01*
X81788D01*
X80797Y320147D01*
X79957Y319585D01*
X65987Y305615D01*
X65425Y304775D01*
X65228Y303784D01*
Y274828D01*
X65425Y273837D01*
X65987Y272997D01*
X78412Y260571D01*
X79253Y260010D01*
X80244Y259813D01*
X179282D01*
X180180Y258915D01*
Y258304D01*
X180180Y257034D01*
Y249648D01*
X188120D01*
Y251156D01*
X195523D01*
X198918Y247762D01*
X198432Y246588D01*
X71270D01*
X70992Y246473D01*
X70692Y246461D01*
X70525Y246280D01*
X70298Y246186D01*
X70183Y245908D01*
X69980Y245687D01*
X69575Y244584D01*
X69585Y244338D01*
X69491Y244111D01*
Y229108D01*
X69894Y228136D01*
X70866Y227733D01*
X133972D01*
X134346Y227888D01*
X134743Y227970D01*
X135735Y228642D01*
X135810Y228755D01*
X135936Y228808D01*
X136091Y229182D01*
X136314Y229520D01*
X136286Y229654D01*
X136339Y229780D01*
X136339Y230378D01*
Y242515D01*
X141029D01*
Y230378D01*
X141029Y229780D01*
X141081Y229654D01*
X141054Y229520D01*
X141277Y229182D01*
X141432Y228808D01*
X141558Y228755D01*
X141633Y228642D01*
X142625Y227970D01*
X143022Y227888D01*
X143396Y227733D01*
X168474D01*
X168846Y227887D01*
X169241Y227967D01*
X169318Y228083D01*
X169446Y228136D01*
X169600Y228508D01*
X169823Y228844D01*
X170053Y230019D01*
X170026Y230154D01*
X170079Y230282D01*
X170079Y230378D01*
X170079Y230378D01*
X170079Y230378D01*
Y241448D01*
X175869D01*
Y230378D01*
X175869Y230378D01*
X175869Y230378D01*
X175869Y230282D01*
X175922Y230154D01*
X175895Y230019D01*
X176125Y228844D01*
X176348Y228508D01*
X176502Y228136D01*
X176630Y228083D01*
X176707Y227967D01*
X177102Y227887D01*
X177474Y227733D01*
X178243D01*
X178555Y227310D01*
X178908Y226463D01*
X178356Y225131D01*
Y223433D01*
X178912Y222091D01*
X178389Y220821D01*
X178204D01*
Y208281D01*
X186744D01*
Y220821D01*
X186744D01*
X186340Y222091D01*
X186896Y223433D01*
Y225131D01*
X186344Y226463D01*
X186873Y227733D01*
X197968D01*
Y220212D01*
X198165Y219221D01*
X198727Y218381D01*
X232590Y184517D01*
Y158417D01*
X230608D01*
X229636Y158014D01*
X229233Y157042D01*
Y149676D01*
X229246Y149647D01*
X229235Y149617D01*
X229595Y148700D01*
X229424Y148232D01*
X229233Y147771D01*
Y136772D01*
X228304Y135842D01*
X226847D01*
X225277Y135192D01*
X224076Y133991D01*
X223426Y132421D01*
Y130723D01*
X224076Y129153D01*
X225277Y127952D01*
X226847Y127302D01*
X228545D01*
X230115Y127952D01*
X231316Y129153D01*
X231966Y130723D01*
Y132179D01*
X235134Y135348D01*
X239752D01*
X240724Y135750D01*
X241127Y136722D01*
Y147771D01*
X240936Y148232D01*
X240765Y148700D01*
X241125Y149617D01*
X241114Y149647D01*
X241127Y149676D01*
Y157042D01*
X240724Y158014D01*
X239752Y158417D01*
X237770D01*
Y185590D01*
X237573Y186581D01*
X237011Y187421D01*
X203148Y221285D01*
Y227733D01*
X205828D01*
X206800Y228136D01*
X207203Y229108D01*
Y245214D01*
X207439Y245568D01*
X213165D01*
X214288Y245214D01*
Y232674D01*
X224828D01*
Y236354D01*
X231324D01*
X232315Y236551D01*
X233155Y237113D01*
X235765Y239723D01*
X236327Y240563D01*
X236524Y241554D01*
Y247399D01*
X236824D01*
Y251609D01*
X282891D01*
X283417Y250339D01*
X283400Y250323D01*
X282750Y248753D01*
Y247055D01*
X283400Y245485D01*
X284601Y244284D01*
X285899Y243746D01*
Y240792D01*
X286302Y239820D01*
X287274Y239417D01*
X303022D01*
X303994Y239820D01*
X304029Y239904D01*
X304106Y239936D01*
X304508Y240908D01*
Y270648D01*
X304106Y271620D01*
X304029Y271652D01*
X303994Y271736D01*
X303022Y272139D01*
X298809D01*
Y290322D01*
X298406Y291294D01*
X298511Y292327D01*
X298712Y292811D01*
X298914Y293295D01*
X300082Y293286D01*
X300178Y293285D01*
X300178Y292867D01*
Y278892D01*
X300375Y277901D01*
X300937Y277061D01*
X304747Y273251D01*
X305587Y272689D01*
X306578Y272492D01*
X319221D01*
X319482Y272231D01*
Y270648D01*
X314594D01*
Y240908D01*
X330134D01*
Y270648D01*
X324662D01*
Y273304D01*
X324465Y274295D01*
X323903Y275135D01*
X322125Y276913D01*
X321285Y277475D01*
X320294Y277672D01*
X307651D01*
X305358Y279965D01*
Y293059D01*
X306127Y293828D01*
X307997D01*
Y292398D01*
X321537D01*
Y293828D01*
X324473D01*
X324770Y293531D01*
Y289508D01*
X321537D01*
Y290938D01*
X307997D01*
Y282898D01*
X321537D01*
Y284329D01*
X326206D01*
X327197Y284526D01*
X328037Y285087D01*
X328433Y285483D01*
X330550D01*
Y297193D01*
X328433D01*
X327377Y298249D01*
X326536Y298811D01*
X325545Y299008D01*
X321537D01*
Y300438D01*
X307997D01*
Y299008D01*
X305054D01*
X304063Y298811D01*
X303223Y298249D01*
X300937Y295963D01*
X300375Y295123D01*
X300257Y294527D01*
X300178Y294132D01*
X298914Y294145D01*
X298914Y294561D01*
Y309938D01*
X298511Y310910D01*
X297539Y311312D01*
X293699D01*
Y352806D01*
X293403Y354293D01*
X292561Y355553D01*
X280237Y367877D01*
Y391588D01*
X289038Y400389D01*
X297084D01*
Y412929D01*
X293953D01*
Y419777D01*
X300623Y426447D01*
X301465Y427707D01*
X301761Y429194D01*
Y452295D01*
X303568Y453338D01*
X305294Y455064D01*
X306514Y457178D01*
X307146Y459536D01*
Y461976D01*
X306514Y464334D01*
X305294Y466448D01*
X303568Y468174D01*
X301454Y469394D01*
X299096Y470026D01*
D02*
G37*
G36*
X91646Y313115D02*
X89948D01*
X88378Y312465D01*
X87177Y311264D01*
X86527Y309694D01*
Y307995D01*
X87177Y306426D01*
X88378Y305225D01*
X89948Y304575D01*
X91646D01*
X93216Y305225D01*
X94351Y306360D01*
X100846D01*
Y305784D01*
X111386D01*
Y312325D01*
X100846D01*
Y311539D01*
X94141D01*
X93216Y312465D01*
X91646Y313115D01*
D02*
G37*
G36*
X117689Y304752D02*
X115991D01*
X114421Y304102D01*
X113428Y303109D01*
X111386D01*
Y303826D01*
X100846D01*
Y297286D01*
X111386D01*
Y297929D01*
X113354D01*
X114421Y296862D01*
X115672Y296344D01*
X115420Y295074D01*
X113098D01*
Y284534D01*
X119638D01*
Y295074D01*
X118260D01*
X118008Y296344D01*
X119259Y296862D01*
X120460Y298063D01*
X121110Y299633D01*
Y301331D01*
X120460Y302901D01*
X119259Y304102D01*
X117689Y304752D01*
D02*
G37*
G36*
X176617Y316436D02*
X174919D01*
X173349Y315786D01*
X172148Y314585D01*
X171498Y313015D01*
Y311317D01*
X172148Y309747D01*
X173277Y308618D01*
Y295074D01*
X172597D01*
Y284534D01*
X179137D01*
Y295074D01*
X178457D01*
Y308816D01*
X179388Y309747D01*
X180038Y311317D01*
Y313015D01*
X179388Y314585D01*
X178187Y315786D01*
X176617Y316436D01*
D02*
G37*
G36*
X167981Y307546D02*
X166283D01*
X164713Y306896D01*
X163512Y305695D01*
X162862Y304125D01*
Y302427D01*
X163512Y300857D01*
X164713Y299656D01*
X164778Y299629D01*
Y295074D01*
X164098D01*
Y284534D01*
X170638D01*
Y295074D01*
X169958D01*
Y300063D01*
X170752Y300857D01*
X171402Y302427D01*
Y304125D01*
X170752Y305695D01*
X169551Y306896D01*
X167981Y307546D01*
D02*
G37*
G36*
X153638Y295074D02*
X147098D01*
Y284534D01*
X153638D01*
Y295074D01*
D02*
G37*
G36*
X145137D02*
X138597D01*
Y284534D01*
X145137D01*
Y295074D01*
D02*
G37*
G36*
X136638D02*
X130098D01*
Y284534D01*
X130769D01*
Y280064D01*
X129730Y279025D01*
X129592Y278692D01*
X128218D01*
X128080Y279025D01*
X127253Y279852D01*
Y284534D01*
X128136D01*
Y295074D01*
X121596D01*
Y284534D01*
X122073D01*
Y280239D01*
X122041Y280226D01*
X120840Y279025D01*
X120190Y277455D01*
Y275757D01*
X120840Y274187D01*
X122033Y272994D01*
X122067Y272821D01*
X122629Y271981D01*
X123469Y271419D01*
X124460Y271222D01*
X125451Y271419D01*
X126291Y271981D01*
X126494Y272184D01*
X127056Y273024D01*
X127090Y273198D01*
X128080Y274187D01*
X128218Y274520D01*
X129592D01*
X129730Y274187D01*
X130931Y272986D01*
X131049Y272937D01*
X131519Y272235D01*
X132359Y271673D01*
X133350Y271476D01*
X134341Y271673D01*
X135181Y272235D01*
X135190Y272244D01*
X135655Y272939D01*
X135769Y272986D01*
X136970Y274187D01*
X137620Y275757D01*
Y277455D01*
X136970Y279025D01*
X135949Y280046D01*
Y284534D01*
X136638D01*
Y295074D01*
D02*
G37*
G36*
X162137D02*
X155597D01*
Y284534D01*
X156092D01*
Y280232D01*
X156077Y280226D01*
X154876Y279025D01*
X154226Y277455D01*
Y275757D01*
X154876Y274187D01*
X156077Y272986D01*
X157647Y272336D01*
X158005D01*
X158496Y272238D01*
X158988Y272336D01*
X159345D01*
X160915Y272986D01*
X162116Y274187D01*
X162766Y275757D01*
Y277455D01*
X162116Y279025D01*
X161271Y279869D01*
Y284534D01*
X162137D01*
Y295074D01*
D02*
G37*
G36*
X151904Y220906D02*
X144464D01*
Y206616D01*
X151904D01*
Y220906D01*
D02*
G37*
G36*
X278826Y194310D02*
X276418D01*
X274093Y193687D01*
X272008Y192483D01*
X270305Y190781D01*
X269101Y188696D01*
X268478Y186370D01*
Y183962D01*
X269101Y181637D01*
X270305Y179552D01*
X272008Y177849D01*
X274093Y176645D01*
X276418Y176022D01*
X278826D01*
X281152Y176645D01*
X283237Y177849D01*
X284939Y179552D01*
X286143Y181637D01*
X286766Y183962D01*
Y186370D01*
X286143Y188696D01*
X284939Y190781D01*
X283237Y192483D01*
X281152Y193687D01*
X278826Y194310D01*
D02*
G37*
G36*
X71816D02*
X69408D01*
X67083Y193687D01*
X64998Y192483D01*
X63295Y190781D01*
X62091Y188696D01*
X61468Y186370D01*
Y183962D01*
X62091Y181637D01*
X63295Y179552D01*
X64998Y177849D01*
X67083Y176645D01*
X69408Y176022D01*
X71816D01*
X74142Y176645D01*
X76227Y177849D01*
X77929Y179552D01*
X79133Y181637D01*
X79756Y183962D01*
Y186370D01*
X79133Y188696D01*
X77929Y190781D01*
X76227Y192483D01*
X74142Y193687D01*
X71816Y194310D01*
D02*
G37*
G36*
X278826Y168910D02*
X276418D01*
X274093Y168287D01*
X272008Y167083D01*
X270305Y165380D01*
X269101Y163295D01*
X268478Y160970D01*
Y158562D01*
X269101Y156236D01*
X270305Y154151D01*
X272008Y152449D01*
X274093Y151245D01*
X276418Y150622D01*
X278826D01*
X281152Y151245D01*
X283237Y152449D01*
X284939Y154151D01*
X286143Y156236D01*
X286766Y158562D01*
Y160970D01*
X286143Y163295D01*
X284939Y165380D01*
X283237Y167083D01*
X281152Y168287D01*
X278826Y168910D01*
D02*
G37*
G36*
X71816D02*
X69408D01*
X67083Y168287D01*
X64998Y167083D01*
X63295Y165380D01*
X62091Y163295D01*
X61468Y160970D01*
Y158562D01*
X62091Y156236D01*
X63295Y154151D01*
X64998Y152449D01*
X67083Y151245D01*
X69408Y150622D01*
X71816D01*
X74142Y151245D01*
X76227Y152449D01*
X77929Y154151D01*
X79133Y156236D01*
X79756Y158562D01*
Y160970D01*
X79133Y163295D01*
X77929Y165380D01*
X76227Y167083D01*
X74142Y168287D01*
X71816Y168910D01*
D02*
G37*
G36*
X159204Y222196D02*
X158232Y221793D01*
Y221793D01*
X157016Y220577D01*
X156613Y219605D01*
X156613Y219605D01*
Y139774D01*
X155343Y139521D01*
X155004Y140341D01*
X153803Y141542D01*
X152233Y142192D01*
X151767D01*
X149956Y144003D01*
Y145912D01*
X144176D01*
Y140341D01*
X146293D01*
X147333Y139301D01*
X147114Y138771D01*
Y137073D01*
X147764Y135503D01*
X148965Y134302D01*
X150535Y133652D01*
X152233D01*
X153803Y134302D01*
X155004Y135503D01*
X155412Y136487D01*
X155665Y136522D01*
X156734Y136361D01*
X157016Y135680D01*
X157988Y135277D01*
X170180D01*
X171152Y135680D01*
X171406Y135934D01*
X171809Y136906D01*
X171809Y136906D01*
Y139096D01*
X171643Y139496D01*
Y144476D01*
X171809Y144876D01*
Y220726D01*
X171406Y221698D01*
X170434Y222101D01*
X167974D01*
X167744Y222196D01*
X167744Y222196D01*
X159205D01*
X159204Y222196D01*
D02*
G37*
G36*
X132831Y222355D02*
X132831Y222355D01*
X121920D01*
X120948Y221952D01*
X120545Y220980D01*
Y134874D01*
X120948Y133902D01*
X121920Y133499D01*
X123696D01*
X125016Y132179D01*
Y130723D01*
X125666Y129153D01*
X126500Y128320D01*
X125980Y127050D01*
X113939D01*
X112909Y128080D01*
X111339Y128730D01*
X109641D01*
X108071Y128080D01*
X106870Y126879D01*
X106220Y125309D01*
Y123611D01*
X106870Y122041D01*
X108071Y120840D01*
X109641Y120190D01*
X111339D01*
X112909Y120840D01*
X113939Y121870D01*
X179267D01*
X187773Y113365D01*
Y103284D01*
X185142D01*
Y95344D01*
X195583D01*
Y103284D01*
X192952D01*
Y114437D01*
X192755Y115428D01*
X192194Y116269D01*
X182171Y126291D01*
X181331Y126853D01*
X180340Y127050D01*
X132592D01*
X132072Y128320D01*
X132906Y129153D01*
X133556Y130723D01*
Y132421D01*
X133547Y132443D01*
X134253Y133499D01*
X135890D01*
X136862Y133902D01*
X137265Y134874D01*
Y217921D01*
X137265Y217921D01*
X136862Y218893D01*
X133803Y221952D01*
X132831Y222355D01*
D02*
G37*
G36*
X223558Y154545D02*
X194018D01*
Y135655D01*
X195106D01*
Y133751D01*
X194076Y132721D01*
X193426Y131151D01*
Y129453D01*
X194076Y127883D01*
X195277Y126682D01*
X196847Y126032D01*
X198545D01*
X200115Y126682D01*
X201316Y127883D01*
X201966Y129453D01*
Y131151D01*
X201316Y132721D01*
X200286Y133751D01*
Y135655D01*
X223558D01*
Y154545D01*
D02*
G37*
%LPD*%
G36*
X297539Y293299D02*
X296638Y292403D01*
X261366Y292608D01*
Y309856D01*
X261562Y309938D01*
X297539D01*
Y293299D01*
D02*
G37*
G36*
X297434Y270764D02*
X303022D01*
Y270648D01*
X303134D01*
Y240908D01*
X303022D01*
Y240792D01*
X287274D01*
Y252730D01*
X287020Y252984D01*
X204216D01*
X203708Y253492D01*
Y269531D01*
X204078Y270648D01*
X283718D01*
Y290322D01*
X297434D01*
Y270764D01*
D02*
G37*
G36*
X205828Y229108D02*
X177474D01*
X177244Y230283D01*
X177244Y230378D01*
Y242823D01*
X168704D01*
Y230378D01*
X168704Y230283D01*
X168474Y229108D01*
X143396D01*
X142404Y229780D01*
X142404Y230378D01*
Y243890D01*
X134964D01*
Y230378D01*
X134964Y229780D01*
X133972Y229108D01*
X70866D01*
Y244111D01*
X71270Y245214D01*
X205828D01*
Y229108D01*
D02*
G37*
G36*
X167840Y220726D02*
X170434D01*
Y144876D01*
X170268D01*
Y139096D01*
X170434D01*
Y136906D01*
X170180Y136652D01*
X157988D01*
Y219605D01*
X159204Y220821D01*
X167744D01*
X167840Y220726D01*
D02*
G37*
G36*
X135890Y217921D02*
Y134874D01*
X121920D01*
Y220980D01*
X132831D01*
X135890Y217921D01*
D02*
G37*
D10*
X287020Y247904D02*
X287490D01*
X295364Y255778D01*
X59401Y438947D02*
Y444371D01*
X69303Y454273D02*
X69596D01*
X59401Y444371D02*
X69303Y454273D01*
X190363Y99314D02*
Y114437D01*
X180340Y124460D02*
X190363Y114437D01*
X69596Y393451D02*
X81788D01*
X66937Y415747D02*
X69596Y413088D01*
Y393451D02*
Y413088D01*
X66942Y393451D02*
X69596D01*
X182474Y234553D02*
X182550Y234477D01*
Y224358D02*
Y234477D01*
Y224358D02*
X182626Y224282D01*
X182474Y234553D02*
Y236553D01*
X162814Y146892D02*
Y147828D01*
Y146892D02*
X163740Y145966D01*
Y145918D02*
X167672Y141986D01*
X163740Y145918D02*
Y145966D01*
X167672Y141986D02*
X167894D01*
X150722Y138584D02*
X151384Y137922D01*
X150722Y138584D02*
Y139575D01*
X147170Y143126D02*
X150722Y139575D01*
X200558Y220212D02*
Y238944D01*
Y220212D02*
X235180Y185590D01*
Y151264D02*
Y185590D01*
X245872Y276686D02*
X249174Y273384D01*
X245872Y276686D02*
Y277622D01*
X249174Y259364D02*
Y273384D01*
X217932Y387350D02*
X233172Y402590D01*
X217932Y304292D02*
Y387350D01*
X233190Y402572D02*
X245600D01*
X233172Y402590D02*
X233190Y402572D01*
X245600D02*
X245618Y402554D01*
X175867Y289804D02*
Y312067D01*
X175768Y312166D02*
X175867Y312067D01*
X81788Y379222D02*
Y388620D01*
X59182Y438728D02*
X59401Y438947D01*
X59182Y367640D02*
X66766Y360055D01*
X59182Y367640D02*
Y438728D01*
X66766Y360055D02*
X106116D01*
X94689Y419555D02*
X106116D01*
X92710Y417576D02*
X94689Y419555D01*
X92710Y408178D02*
Y417576D01*
X89459Y404927D02*
X92710Y408178D01*
X81534Y404927D02*
X89459D01*
X66937Y377749D02*
Y393446D01*
X66942Y393451D01*
X81661Y393578D02*
Y404800D01*
X81534Y404927D02*
X81661Y404800D01*
Y393578D02*
X81788Y393451D01*
X197612Y138449D02*
X197696Y138365D01*
Y130302D02*
Y138365D01*
X231140Y361188D02*
Y389890D01*
X235306Y394056D01*
X245618D01*
X106011Y308950D02*
X106116Y309055D01*
X90902Y308950D02*
X106011D01*
X90797Y308845D02*
X90902Y308950D01*
X124415Y136443D02*
Y139694D01*
X124155Y139954D02*
X124415Y139694D01*
Y136443D02*
X129286Y131572D01*
X116803Y300519D02*
X116840Y300482D01*
X106116Y300556D02*
X106153Y300519D01*
X116803D01*
X124663Y289601D02*
X124866Y289804D01*
X124663Y274015D02*
Y289601D01*
X124460Y273812D02*
X124663Y274015D01*
X110490Y124460D02*
X180340D01*
X133350Y274066D02*
X133359Y274075D01*
Y289795D02*
X133368Y289804D01*
X133359Y274075D02*
Y289795D01*
X158496Y274828D02*
X158681Y275013D01*
Y289618D02*
X158867Y289804D01*
X158681Y275013D02*
Y289618D01*
X147066Y143126D02*
X147170D01*
X184131Y289569D02*
X184366Y289804D01*
X184131Y275317D02*
Y289569D01*
X183896Y275082D02*
X184131Y275317D01*
X192954Y274660D02*
X193040Y274574D01*
X192867Y289804D02*
X192954Y289718D01*
Y274660D02*
Y289718D01*
X201648Y276126D02*
Y289522D01*
X201366Y289804D02*
X201648Y289522D01*
Y276126D02*
X201930Y275844D01*
X210090Y275050D02*
Y289582D01*
Y275050D02*
X210312Y274828D01*
X209867Y289804D02*
X210090Y289582D01*
X218186Y276352D02*
X218276Y276442D01*
Y289714D02*
X218366Y289804D01*
X218276Y276442D02*
Y289714D01*
X226868Y289804D02*
X227099Y289573D01*
Y275821D02*
Y289573D01*
Y275821D02*
X227330Y275590D01*
X197612Y138449D02*
X204263Y145100D01*
X235539Y276779D02*
X235712Y276606D01*
X235367Y289804D02*
X235539Y289631D01*
Y276779D02*
Y289631D01*
X105918Y317754D02*
X106116Y317556D01*
X81788Y317754D02*
X105918D01*
X67818Y303784D02*
X81788Y317754D01*
X67818Y274828D02*
Y303784D01*
Y274828D02*
X80244Y262402D01*
X184150D01*
X245528Y300646D02*
X245618Y300556D01*
X230722Y300646D02*
X245528D01*
X230632Y300736D02*
X230722Y300646D01*
X231553Y309213D02*
X245459D01*
X231394Y309372D02*
X231553Y309213D01*
X245459D02*
X245618Y309055D01*
X227696Y131572D02*
X235180Y139056D01*
Y142247D01*
X231394Y326136D02*
X231435Y326095D01*
X245577D02*
X245618Y326055D01*
X231435Y326095D02*
X245577D01*
X231902Y317500D02*
X231930Y317528D01*
X245590D02*
X245618Y317556D01*
X231930Y317528D02*
X245590D01*
X231667Y334537D02*
X245599D01*
X245374Y351800D02*
X245618Y351556D01*
X231140Y352044D02*
X231384Y351800D01*
X245374D01*
X231952Y343105D02*
X245569D01*
X231902Y343154D02*
X231952Y343105D01*
X231648Y334518D02*
X231667Y334537D01*
X245599D02*
X245618Y334556D01*
X245569Y343105D02*
X245618Y343055D01*
X204263Y145100D02*
X208788D01*
X151288Y96802D02*
Y96907D01*
X143002Y94408D02*
X148893D01*
X151534Y97153D02*
X151638D01*
X151288Y96907D02*
X151534Y97153D01*
X148893Y94408D02*
X151288Y96802D01*
X142879Y102256D02*
X142881Y102255D01*
X151392Y102229D02*
X151638Y101983D01*
X142881Y102229D02*
X151392D01*
X142881D02*
Y102255D01*
X161761Y102020D02*
X161798Y102057D01*
X151675Y102020D02*
X161761D01*
X151638Y101983D02*
X151675Y102020D01*
X167368Y289804D02*
Y302786D01*
X167132Y303022D02*
X167368Y302786D01*
X167132Y303022D02*
Y303276D01*
X245618Y394056D02*
X265116D01*
X266604Y395544D02*
Y395611D01*
X266850Y395857D02*
X266954D01*
X265116Y394056D02*
X266604Y395544D01*
Y395611D02*
X266850Y395857D01*
X245618Y402554D02*
X264983D01*
X266850Y400687D01*
X266954D01*
X89576Y326222D02*
X105948D01*
X89408Y326390D02*
X89576Y326222D01*
X105948D02*
X106116Y326055D01*
X219558Y238944D02*
X231324D01*
X233934Y241554D02*
Y250185D01*
X231324Y238944D02*
X233934Y241554D01*
X219202Y239300D02*
Y245872D01*
Y239300D02*
X219558Y238944D01*
X202184Y248158D02*
X216916D01*
X219202Y245872D01*
X184150Y253746D02*
X196596D01*
X202184Y248158D01*
X322072Y256070D02*
Y273304D01*
Y256070D02*
X322364Y255778D01*
X320294Y275082D02*
X322072Y273304D01*
X306578Y275082D02*
X320294D01*
X302768Y278892D02*
Y294132D01*
Y278892D02*
X306578Y275082D01*
X302768Y294132D02*
X305054Y296418D01*
X314767D01*
Y286918D02*
X326206D01*
X327660Y288373D01*
Y288595D01*
X325545Y296418D02*
X327660Y294303D01*
X314767Y296418D02*
X325545D01*
X327660Y294081D02*
Y294303D01*
D36*
X233934Y250185D02*
D03*
Y255016D02*
D03*
X266954Y395857D02*
D03*
Y400687D02*
D03*
X81788Y393451D02*
D03*
Y388620D02*
D03*
X151638Y97153D02*
D03*
Y101983D02*
D03*
X147066Y143126D02*
D03*
Y147957D02*
D03*
D38*
X318770Y385572D02*
Y424434D01*
X308859Y375661D02*
X318770Y385572D01*
X289814Y375661D02*
X308859D01*
X289814Y306128D02*
X290024Y305918D01*
X290769D01*
X289814Y306128D02*
Y352806D01*
X276352Y366268D02*
X289814Y352806D01*
X276352Y366268D02*
Y393197D01*
X286354Y404199D02*
X288814Y406659D01*
X286354Y403199D02*
Y404199D01*
X288814Y406659D02*
X289814D01*
X276352Y393197D02*
X286354Y403199D01*
X290068Y406913D02*
Y421386D01*
X289814Y406659D02*
X290068Y406913D01*
Y421386D02*
X297876Y429194D01*
Y460756D01*
D39*
X277876D02*
D03*
X297876D02*
D03*
D40*
X383794Y261874D02*
D03*
Y54610D02*
D03*
D41*
X409194Y261874D02*
D03*
X434594D02*
D03*
X409194Y54610D02*
D03*
X434594D02*
D03*
D42*
X277622Y185166D02*
D03*
Y159766D02*
D03*
X70612Y185166D02*
D03*
Y159766D02*
D03*
D43*
X277622Y134366D02*
D03*
X70612D02*
D03*
D44*
X69596Y454273D02*
D03*
Y469271D02*
D03*
D45*
X274574Y344678D02*
D03*
X74422D02*
D03*
D46*
X287020Y247904D02*
D03*
X76454Y425450D02*
D03*
X84074D02*
D03*
Y432816D02*
D03*
X76454D02*
D03*
X47244Y138938D02*
D03*
X54864D02*
D03*
Y146304D02*
D03*
X47244D02*
D03*
Y124714D02*
D03*
X54864D02*
D03*
Y132080D02*
D03*
X47244D02*
D03*
X49022Y228854D02*
D03*
X56642D02*
D03*
Y236220D02*
D03*
X49022D02*
D03*
X298704Y126492D02*
D03*
Y118618D02*
D03*
X298675Y134183D02*
D03*
Y141803D02*
D03*
X306832Y141732D02*
D03*
Y134112D02*
D03*
Y118364D02*
D03*
Y126238D02*
D03*
X93726Y165354D02*
D03*
X101346D02*
D03*
X93726Y172466D02*
D03*
X101346D02*
D03*
X93726Y180340D02*
D03*
X101346D02*
D03*
X273050Y104394D02*
D03*
X280670D02*
D03*
X257556D02*
D03*
X265176D02*
D03*
X243332D02*
D03*
X250190D02*
D03*
X166624Y254000D02*
D03*
X174244D02*
D03*
X143510Y254254D02*
D03*
X151130D02*
D03*
X94488Y195580D02*
D03*
X102108D02*
D03*
Y188214D02*
D03*
X94488D02*
D03*
X49022Y222504D02*
D03*
X56642D02*
D03*
Y215138D02*
D03*
X49022D02*
D03*
X94488Y210566D02*
D03*
X102108D02*
D03*
Y203200D02*
D03*
X94488D02*
D03*
X298704Y338074D02*
D03*
X306324D02*
D03*
Y330708D02*
D03*
X298704D02*
D03*
X316230Y441960D02*
D03*
X323850D02*
D03*
Y434594D02*
D03*
X316230D02*
D03*
X276098Y425450D02*
D03*
Y418084D02*
D03*
X262636Y425450D02*
D03*
X270256D02*
D03*
Y418084D02*
D03*
X262636D02*
D03*
X51054Y315722D02*
D03*
X58674D02*
D03*
Y308356D02*
D03*
X51054D02*
D03*
X50800Y330454D02*
D03*
X58420D02*
D03*
Y323088D02*
D03*
X50800D02*
D03*
X50546Y344932D02*
D03*
X58166D02*
D03*
Y337566D02*
D03*
X50546D02*
D03*
X290576Y218694D02*
D03*
X298196D02*
D03*
Y211328D02*
D03*
X290576D02*
D03*
Y233172D02*
D03*
X298196D02*
D03*
Y225806D02*
D03*
X290576D02*
D03*
X242570Y172466D02*
D03*
X250190D02*
D03*
X242570Y179324D02*
D03*
X250190D02*
D03*
X242570Y186182D02*
D03*
X250190D02*
D03*
Y193548D02*
D03*
X242570D02*
D03*
X182626Y224282D02*
D03*
X162814Y147828D02*
D03*
X151384Y137922D02*
D03*
X245872Y277622D02*
D03*
X217932Y304292D02*
D03*
X233172Y402590D02*
D03*
X175768Y312166D02*
D03*
X81788Y379222D02*
D03*
X197696Y130302D02*
D03*
X231140Y361188D02*
D03*
X90797Y308845D02*
D03*
X116840Y300482D02*
D03*
X124460Y276606D02*
D03*
X129286Y131572D02*
D03*
X110490Y124460D02*
D03*
X133350Y276606D02*
D03*
X158496D02*
D03*
X183896D02*
D03*
X193040D02*
D03*
X201930D02*
D03*
X210312D02*
D03*
X218186D02*
D03*
X227330D02*
D03*
X235712D02*
D03*
X231140Y300736D02*
D03*
Y309372D02*
D03*
X227696Y131572D02*
D03*
X231140Y326136D02*
D03*
Y317500D02*
D03*
Y343154D02*
D03*
Y352044D02*
D03*
Y334518D02*
D03*
X143002Y94408D02*
D03*
X142879Y102256D02*
D03*
X167132Y303276D02*
D03*
X318770Y424434D02*
D03*
X89408Y326390D02*
D03*
D47*
X289814Y375661D02*
D03*
Y406659D02*
D03*
D48*
X51935Y377749D02*
D03*
Y415747D02*
D03*
X66937D02*
D03*
Y377749D02*
D03*
D49*
X235180Y151264D02*
D03*
D50*
Y142247D02*
D03*
D51*
X200558Y238944D02*
D03*
X210058Y261944D02*
D03*
X219558Y238944D02*
D03*
D52*
X190363Y99314D02*
D03*
X179461D02*
D03*
D53*
X245618Y419555D02*
D03*
Y411056D02*
D03*
Y402554D02*
D03*
Y394056D02*
D03*
Y385554D02*
D03*
Y377055D02*
D03*
Y368554D02*
D03*
Y360055D02*
D03*
Y351556D02*
D03*
Y343055D02*
D03*
Y334556D02*
D03*
Y326055D02*
D03*
Y317556D02*
D03*
Y309055D02*
D03*
Y300556D02*
D03*
X106116D02*
D03*
Y309055D02*
D03*
Y317556D02*
D03*
Y326055D02*
D03*
Y334556D02*
D03*
Y343055D02*
D03*
Y351556D02*
D03*
Y360055D02*
D03*
Y368554D02*
D03*
Y377055D02*
D03*
Y385554D02*
D03*
Y394056D02*
D03*
Y402554D02*
D03*
Y411056D02*
D03*
Y419555D02*
D03*
D54*
X235367Y289804D02*
D03*
X226868D02*
D03*
X218366D02*
D03*
X209867D02*
D03*
X201366D02*
D03*
X192867D02*
D03*
X184366D02*
D03*
X175867D02*
D03*
X167368D02*
D03*
X158867D02*
D03*
X150368D02*
D03*
X141867D02*
D03*
X133368D02*
D03*
X124866D02*
D03*
X116368D02*
D03*
Y430304D02*
D03*
X124866D02*
D03*
X133368D02*
D03*
X141867D02*
D03*
X150368D02*
D03*
X158867D02*
D03*
X167368D02*
D03*
X175867D02*
D03*
X184366D02*
D03*
X192867D02*
D03*
X201366D02*
D03*
X209867D02*
D03*
X218366D02*
D03*
X226868D02*
D03*
X235367D02*
D03*
D55*
X245867Y430055D02*
D03*
X105867D02*
D03*
X245867Y290055D02*
D03*
X105867D02*
D03*
D56*
X192367Y376555D02*
D03*
X175867D02*
D03*
X159367D02*
D03*
X192367Y360055D02*
D03*
X175867D02*
D03*
X159367D02*
D03*
X192367Y343555D02*
D03*
X175867D02*
D03*
X159367D02*
D03*
D57*
X314767Y286918D02*
D03*
Y296418D02*
D03*
Y305918D02*
D03*
X290769D02*
D03*
Y296418D02*
D03*
Y286918D02*
D03*
D58*
X322364Y255778D02*
D03*
X295364D02*
D03*
D59*
X129184Y236835D02*
D03*
X138684D02*
D03*
X148184D02*
D03*
D60*
Y213761D02*
D03*
X129184D02*
D03*
D61*
X208788Y145100D02*
D03*
Y175448D02*
D03*
D62*
X249174Y259364D02*
D03*
Y245364D02*
D03*
X270510Y316117D02*
D03*
Y302119D02*
D03*
X272796Y259730D02*
D03*
Y245730D02*
D03*
X104140Y236870D02*
D03*
Y222870D02*
D03*
X80264Y237124D02*
D03*
Y223124D02*
D03*
D63*
X163474Y214551D02*
D03*
X182474D02*
D03*
X163474Y236553D02*
D03*
X182474D02*
D03*
X172974D02*
D03*
D64*
X164196Y193802D02*
D03*
X178196D02*
D03*
X177941Y156718D02*
D03*
X163943D02*
D03*
X114780Y172974D02*
D03*
X128778D02*
D03*
X114667Y154432D02*
D03*
X128665D02*
D03*
X177433Y175260D02*
D03*
X163435D02*
D03*
X128666Y197104D02*
D03*
X114666D02*
D03*
D65*
X184150Y262402D02*
D03*
Y253746D02*
D03*
D66*
X161798Y102057D02*
D03*
Y96571D02*
D03*
X81534Y404927D02*
D03*
Y410413D02*
D03*
X327660Y288595D02*
D03*
Y294081D02*
D03*
D67*
X167894Y141986D02*
D03*
X173380D02*
D03*
X124155Y139954D02*
D03*
X118669D02*
D03*
M02*
