G04*
G04 #@! TF.GenerationSoftware,Altium Limited,Altium Designer,24.2.2 (26)*
G04*
G04 Layer_Color=128*
%FSLAX44Y44*%
%MOMM*%
G71*
G04*
G04 #@! TF.SameCoordinates,B64C3CBE-EE26-4C86-9773-21E75D238B38*
G04*
G04*
G04 #@! TF.FilePolarity,Positive*
G04*
G01*
G75*
%ADD92C,0.1270*%
D92*
X273376Y460756D02*
X282376D01*
X277876Y456256D02*
Y465256D01*
X293376Y460756D02*
X302376D01*
X297876Y456256D02*
Y465256D01*
X378294Y261874D02*
X389294D01*
X383794Y256374D02*
Y267374D01*
X403694Y261874D02*
X414694D01*
X409194Y256374D02*
Y267374D01*
X429094Y261874D02*
X440094D01*
X434594Y256374D02*
Y267374D01*
X272522Y185166D02*
X282722D01*
X277622Y180066D02*
Y190266D01*
X272522Y159766D02*
X282722D01*
X277622Y154666D02*
Y164866D01*
X272522Y134366D02*
X282722D01*
X277622Y129266D02*
Y139466D01*
X66096Y454273D02*
X73096D01*
X69596Y450773D02*
Y457773D01*
X66096Y469270D02*
X73096D01*
X69596Y465770D02*
Y472770D01*
X65512Y185166D02*
X75712D01*
X70612Y180066D02*
Y190266D01*
X65512Y159766D02*
X75712D01*
X70612Y154666D02*
Y164866D01*
X65512Y134366D02*
X75712D01*
X70612Y129266D02*
Y139466D01*
X378294Y54610D02*
X389294D01*
X383794Y49110D02*
Y60110D01*
X403694Y54610D02*
X414694D01*
X409194Y49110D02*
Y60110D01*
X429094Y54610D02*
X440094D01*
X434594Y49110D02*
Y60110D01*
X268574Y344678D02*
X280574D01*
X274574Y338678D02*
Y350678D01*
X68422Y344678D02*
X80422D01*
X74422Y338678D02*
Y350678D01*
X285496Y247904D02*
X288544D01*
X287020Y246380D02*
Y249428D01*
X74930Y425450D02*
X77978D01*
X76454Y423926D02*
Y426974D01*
X82550Y425450D02*
X85598D01*
X84074Y423926D02*
Y426974D01*
X82550Y432816D02*
X85598D01*
X84074Y431292D02*
Y434340D01*
X74930Y432816D02*
X77978D01*
X76454Y431292D02*
Y434340D01*
X45720Y138938D02*
X48768D01*
X47244Y137414D02*
Y140462D01*
X53340Y138938D02*
X56388D01*
X54864Y137414D02*
Y140462D01*
X53340Y146304D02*
X56388D01*
X54864Y144780D02*
Y147828D01*
X45720Y146304D02*
X48768D01*
X47244Y144780D02*
Y147828D01*
X45720Y124714D02*
X48768D01*
X47244Y123190D02*
Y126238D01*
X53340Y124714D02*
X56388D01*
X54864Y123190D02*
Y126238D01*
X53340Y132080D02*
X56388D01*
X54864Y130556D02*
Y133604D01*
X45720Y132080D02*
X48768D01*
X47244Y130556D02*
Y133604D01*
X47498Y228854D02*
X50546D01*
X49022Y227330D02*
Y230378D01*
X55118Y228854D02*
X58166D01*
X56642Y227330D02*
Y230378D01*
X55118Y236220D02*
X58166D01*
X56642Y234696D02*
Y237744D01*
X47498Y236220D02*
X50546D01*
X49022Y234696D02*
Y237744D01*
X297180Y126492D02*
X300228D01*
X298704Y124968D02*
Y128016D01*
X297180Y118618D02*
X300228D01*
X298704Y117094D02*
Y120142D01*
X297150Y134183D02*
X300198D01*
X298675Y132659D02*
Y135707D01*
X297150Y141803D02*
X300198D01*
X298675Y140279D02*
Y143327D01*
X305308Y141732D02*
X308356D01*
X306832Y140208D02*
Y143256D01*
X305308Y134112D02*
X308356D01*
X306832Y132588D02*
Y135636D01*
X305308Y118364D02*
X308356D01*
X306832Y116840D02*
Y119888D01*
X305308Y126238D02*
X308356D01*
X306832Y124714D02*
Y127762D01*
X92202Y165354D02*
X95250D01*
X93726Y163830D02*
Y166878D01*
X99822Y165354D02*
X102870D01*
X101346Y163830D02*
Y166878D01*
X92202Y172466D02*
X95250D01*
X93726Y170942D02*
Y173990D01*
X99822Y172466D02*
X102870D01*
X101346Y170942D02*
Y173990D01*
X92202Y180340D02*
X95250D01*
X93726Y178816D02*
Y181864D01*
X99822Y180340D02*
X102870D01*
X101346Y178816D02*
Y181864D01*
X271526Y104394D02*
X274574D01*
X273050Y102870D02*
Y105918D01*
X279146Y104394D02*
X282194D01*
X280670Y102870D02*
Y105918D01*
X256032Y104394D02*
X259080D01*
X257556Y102870D02*
Y105918D01*
X263652Y104394D02*
X266700D01*
X265176Y102870D02*
Y105918D01*
X241808Y104394D02*
X244856D01*
X243332Y102870D02*
Y105918D01*
X248666Y104394D02*
X251714D01*
X250190Y102870D02*
Y105918D01*
X165100Y254000D02*
X168148D01*
X166624Y252476D02*
Y255524D01*
X172720Y254000D02*
X175768D01*
X174244Y252476D02*
Y255524D01*
X141986Y254254D02*
X145034D01*
X143510Y252730D02*
Y255778D01*
X149606Y254254D02*
X152654D01*
X151130Y252730D02*
Y255778D01*
X92964Y195580D02*
X96012D01*
X94488Y194056D02*
Y197104D01*
X100584Y195580D02*
X103632D01*
X102108Y194056D02*
Y197104D01*
X100584Y188214D02*
X103632D01*
X102108Y186690D02*
Y189738D01*
X92964Y188214D02*
X96012D01*
X94488Y186690D02*
Y189738D01*
X47498Y222504D02*
X50546D01*
X49022Y220980D02*
Y224028D01*
X55118Y222504D02*
X58166D01*
X56642Y220980D02*
Y224028D01*
X55118Y215138D02*
X58166D01*
X56642Y213614D02*
Y216662D01*
X47498Y215138D02*
X50546D01*
X49022Y213614D02*
Y216662D01*
X92964Y210566D02*
X96012D01*
X94488Y209042D02*
Y212090D01*
X100584Y210566D02*
X103632D01*
X102108Y209042D02*
Y212090D01*
X100584Y203200D02*
X103632D01*
X102108Y201676D02*
Y204724D01*
X92964Y203200D02*
X96012D01*
X94488Y201676D02*
Y204724D01*
X297180Y338074D02*
X300228D01*
X298704Y336550D02*
Y339598D01*
X304800Y338074D02*
X307848D01*
X306324Y336550D02*
Y339598D01*
X304800Y330708D02*
X307848D01*
X306324Y329184D02*
Y332232D01*
X297180Y330708D02*
X300228D01*
X298704Y329184D02*
Y332232D01*
X314706Y441960D02*
X317754D01*
X316230Y440436D02*
Y443484D01*
X322326Y441960D02*
X325374D01*
X323850Y440436D02*
Y443484D01*
X322326Y434594D02*
X325374D01*
X323850Y433070D02*
Y436118D01*
X314706Y434594D02*
X317754D01*
X316230Y433070D02*
Y436118D01*
X274574Y425450D02*
X277622D01*
X276098Y423926D02*
Y426974D01*
X274574Y418084D02*
X277622D01*
X276098Y416560D02*
Y419608D01*
X261112Y425450D02*
X264160D01*
X262636Y423926D02*
Y426974D01*
X268732Y425450D02*
X271780D01*
X270256Y423926D02*
Y426974D01*
X268732Y418084D02*
X271780D01*
X270256Y416560D02*
Y419608D01*
X261112Y418084D02*
X264160D01*
X262636Y416560D02*
Y419608D01*
X49530Y315722D02*
X52578D01*
X51054Y314198D02*
Y317246D01*
X57150Y315722D02*
X60198D01*
X58674Y314198D02*
Y317246D01*
X57150Y308356D02*
X60198D01*
X58674Y306832D02*
Y309880D01*
X49530Y308356D02*
X52578D01*
X51054Y306832D02*
Y309880D01*
X49276Y330454D02*
X52324D01*
X50800Y328930D02*
Y331978D01*
X56896Y330454D02*
X59944D01*
X58420Y328930D02*
Y331978D01*
X56896Y323088D02*
X59944D01*
X58420Y321564D02*
Y324612D01*
X49276Y323088D02*
X52324D01*
X50800Y321564D02*
Y324612D01*
X49022Y344932D02*
X52070D01*
X50546Y343408D02*
Y346456D01*
X56642Y344932D02*
X59690D01*
X58166Y343408D02*
Y346456D01*
X56642Y337566D02*
X59690D01*
X58166Y336042D02*
Y339090D01*
X49022Y337566D02*
X52070D01*
X50546Y336042D02*
Y339090D01*
X289052Y218694D02*
X292100D01*
X290576Y217170D02*
Y220218D01*
X296672Y218694D02*
X299720D01*
X298196Y217170D02*
Y220218D01*
X296672Y211328D02*
X299720D01*
X298196Y209804D02*
Y212852D01*
X289052Y211328D02*
X292100D01*
X290576Y209804D02*
Y212852D01*
X289052Y233172D02*
X292100D01*
X290576Y231648D02*
Y234696D01*
X296672Y233172D02*
X299720D01*
X298196Y231648D02*
Y234696D01*
X296672Y225806D02*
X299720D01*
X298196Y224282D02*
Y227330D01*
X289052Y225806D02*
X292100D01*
X290576Y224282D02*
Y227330D01*
X241046Y172466D02*
X244094D01*
X242570Y170942D02*
Y173990D01*
X248666Y172466D02*
X251714D01*
X250190Y170942D02*
Y173990D01*
X241046Y179324D02*
X244094D01*
X242570Y177800D02*
Y180848D01*
X248666Y179324D02*
X251714D01*
X250190Y177800D02*
Y180848D01*
X241046Y186182D02*
X244094D01*
X242570Y184658D02*
Y187706D01*
X248666Y186182D02*
X251714D01*
X250190Y184658D02*
Y187706D01*
X248666Y193548D02*
X251714D01*
X250190Y192024D02*
Y195072D01*
X241046Y193548D02*
X244094D01*
X242570Y192024D02*
Y195072D01*
X181126Y224282D02*
X184126D01*
X182626Y222782D02*
Y225782D01*
X161290Y147828D02*
X164338D01*
X162814Y146304D02*
Y149352D01*
X149860Y137922D02*
X152908D01*
X151384Y136398D02*
Y139446D01*
X244372Y277622D02*
X247372D01*
X245872Y276122D02*
Y279122D01*
X216432Y304292D02*
X219432D01*
X217932Y302792D02*
Y305792D01*
X231672Y402590D02*
X234672D01*
X233172Y401090D02*
Y404090D01*
X174244Y312166D02*
X177292D01*
X175768Y310642D02*
Y313690D01*
X80288Y379222D02*
X83288D01*
X81788Y377722D02*
Y380722D01*
X196172Y130302D02*
X199220D01*
X197696Y128778D02*
Y131826D01*
X229616Y361188D02*
X232664D01*
X231140Y359664D02*
Y362712D01*
X89273Y308845D02*
X92321D01*
X90797Y307321D02*
Y310369D01*
X115316Y300482D02*
X118364D01*
X116840Y298958D02*
Y302006D01*
X122936Y276606D02*
X125984D01*
X124460Y275082D02*
Y278130D01*
X127762Y131572D02*
X130810D01*
X129286Y130048D02*
Y133096D01*
X108966Y124460D02*
X112014D01*
X110490Y122936D02*
Y125984D01*
X131826Y276606D02*
X134874D01*
X133350Y275082D02*
Y278130D01*
X156972Y276606D02*
X160020D01*
X158496Y275082D02*
Y278130D01*
X182372Y276606D02*
X185420D01*
X183896Y275082D02*
Y278130D01*
X191516Y276606D02*
X194564D01*
X193040Y275082D02*
Y278130D01*
X200406Y276606D02*
X203454D01*
X201930Y275082D02*
Y278130D01*
X208788Y276606D02*
X211836D01*
X210312Y275082D02*
Y278130D01*
X216662Y276606D02*
X219710D01*
X218186Y275082D02*
Y278130D01*
X225806Y276606D02*
X228854D01*
X227330Y275082D02*
Y278130D01*
X234188Y276606D02*
X237236D01*
X235712Y275082D02*
Y278130D01*
X229616Y300736D02*
X232664D01*
X231140Y299212D02*
Y302260D01*
X229616Y309372D02*
X232664D01*
X231140Y307848D02*
Y310896D01*
X226172Y131572D02*
X229220D01*
X227696Y130048D02*
Y133096D01*
X229616Y326136D02*
X232664D01*
X231140Y324612D02*
Y327660D01*
X229616Y317500D02*
X232664D01*
X231140Y315976D02*
Y319024D01*
X229616Y343154D02*
X232664D01*
X231140Y341630D02*
Y344678D01*
X229616Y352044D02*
X232664D01*
X231140Y350520D02*
Y353568D01*
X229616Y334518D02*
X232664D01*
X231140Y332994D02*
Y336042D01*
X141478Y94408D02*
X144526D01*
X143002Y92884D02*
Y95932D01*
X141355Y102256D02*
X144403D01*
X142879Y100732D02*
Y103780D01*
X165608Y303276D02*
X168656D01*
X167132Y301752D02*
Y304800D01*
X317246Y424434D02*
X320294D01*
X318770Y422910D02*
Y425958D01*
X87884Y326390D02*
X90932D01*
X89408Y324866D02*
Y327914D01*
M02*
