G04*
G04 #@! TF.GenerationSoftware,Altium Limited,Altium Designer,24.2.2 (26)*
G04*
G04 Layer_Color=128*
%FSLAX44Y44*%
%MOMM*%
G71*
G04*
G04 #@! TF.SameCoordinates,B64C3CBE-EE26-4C86-9773-21E75D238B38*
G04*
G04*
G04 #@! TF.FilePolarity,Positive*
G04*
G01*
G75*
%ADD47R,1.2000X1.0000*%
%ADD48R,0.9000X1.5000*%
%ADD51R,0.8000X1.0000*%
%ADD53R,0.8000X0.4000*%
%ADD54R,0.4000X0.8000*%
%ADD55R,0.8000X0.8000*%
%ADD56R,1.2000X1.2000*%
%ADD57R,1.1000X0.5500*%
%ADD58R,1.3000X2.7200*%
%ADD59R,0.4900X1.1570*%
%ADD60R,0.4900X1.1750*%
%ADD62R,0.9000X0.8000*%
%ADD63R,0.6000X1.0000*%
%ADD64R,0.8000X0.9000*%
G36*
X83154Y412014D02*
Y408720D01*
X82914Y408480D01*
X80154D01*
X79914Y408720D01*
Y412014D01*
X80154Y412254D01*
X82914D01*
X83154Y412014D01*
D02*
G37*
G36*
Y406620D02*
Y403326D01*
X82914Y403086D01*
X80154D01*
X79914Y403326D01*
Y406620D01*
X80154Y406860D01*
X82914D01*
X83154Y406620D01*
D02*
G37*
G36*
X268574Y401963D02*
Y399322D01*
X268334Y399082D01*
X265574D01*
X265334Y399322D01*
Y401963D01*
X265574Y402203D01*
X268334D01*
X268574Y401963D01*
D02*
G37*
G36*
Y397222D02*
Y394581D01*
X268334Y394341D01*
X265574D01*
X265334Y394581D01*
Y397222D01*
X265574Y397462D01*
X268334D01*
X268574Y397222D01*
D02*
G37*
G36*
X83408Y394727D02*
Y392086D01*
X83168Y391846D01*
X80408D01*
X80168Y392086D01*
Y394727D01*
X80408Y394967D01*
X83168D01*
X83408Y394727D01*
D02*
G37*
G36*
Y389986D02*
Y387344D01*
X83168Y387104D01*
X80408D01*
X80168Y387344D01*
Y389986D01*
X80408Y390225D01*
X83168D01*
X83408Y389986D01*
D02*
G37*
G36*
X329280Y295682D02*
Y292388D01*
X329040Y292148D01*
X326280D01*
X326040Y292388D01*
Y295682D01*
X326280Y295922D01*
X329040D01*
X329280Y295682D01*
D02*
G37*
G36*
Y290288D02*
Y286994D01*
X329040Y286754D01*
X326280D01*
X326040Y286994D01*
Y290288D01*
X326280Y290528D01*
X329040D01*
X329280Y290288D01*
D02*
G37*
G36*
X186850Y264831D02*
Y259824D01*
X186450Y259424D01*
X181850D01*
X181450Y259824D01*
Y264831D01*
X181850Y265231D01*
X186450D01*
X186850Y264831D01*
D02*
G37*
G36*
X235554Y256292D02*
Y253650D01*
X235314Y253410D01*
X232554D01*
X232314Y253650D01*
Y256292D01*
X232554Y256532D01*
X235314D01*
X235554Y256292D01*
D02*
G37*
G36*
X186850Y256324D02*
Y251318D01*
X186450Y250918D01*
X181850D01*
X181450Y251318D01*
Y256324D01*
X181850Y256724D01*
X186450D01*
X186850Y256324D01*
D02*
G37*
G36*
X235554Y251550D02*
Y248909D01*
X235314Y248669D01*
X232554D01*
X232314Y248909D01*
Y251550D01*
X232554Y251791D01*
X235314D01*
X235554Y251550D01*
D02*
G37*
G36*
X222288Y182624D02*
Y168274D01*
X221288Y167274D01*
X214378D01*
X213378Y168274D01*
Y171833D01*
X212378Y172833D01*
X205198D01*
X204198Y171833D01*
Y168274D01*
X203198Y167274D01*
X196288D01*
X195288Y168274D01*
Y182624D01*
X196288Y183624D01*
X221288D01*
X222288Y182624D01*
D02*
G37*
G36*
Y152274D02*
Y137924D01*
X221288Y136924D01*
X196288D01*
X195288Y137924D01*
Y152274D01*
X196288Y153274D01*
X203198D01*
X204198Y152274D01*
Y148715D01*
X205198Y147715D01*
X212378D01*
X213378Y148715D01*
Y152274D01*
X214378Y153274D01*
X221288D01*
X222288Y152274D01*
D02*
G37*
G36*
X148686Y149233D02*
Y146592D01*
X148446Y146352D01*
X145686D01*
X145446Y146592D01*
Y149233D01*
X145686Y149473D01*
X148446D01*
X148686Y149233D01*
D02*
G37*
G36*
X239752Y149676D02*
X235180Y145485D01*
X230608Y149676D01*
Y157042D01*
X239752D01*
Y149676D01*
D02*
G37*
G36*
Y136722D02*
X230608D01*
Y147771D01*
X235180Y143580D01*
X239752Y147771D01*
Y136722D01*
D02*
G37*
G36*
X148686Y144492D02*
Y141851D01*
X148446Y141611D01*
X145686D01*
X145446Y141851D01*
Y144492D01*
X145686Y144732D01*
X148446D01*
X148686Y144492D01*
D02*
G37*
G36*
X175222Y143366D02*
Y140606D01*
X174982Y140366D01*
X171687D01*
X171447Y140606D01*
Y143366D01*
X171687Y143606D01*
X174982D01*
X175222Y143366D01*
D02*
G37*
G36*
X169827D02*
Y140606D01*
X169587Y140366D01*
X166293D01*
X166053Y140606D01*
Y143366D01*
X166293Y143606D01*
X169587D01*
X169827Y143366D01*
D02*
G37*
G36*
X125996Y141334D02*
Y138574D01*
X125756Y138334D01*
X122462D01*
X122222Y138574D01*
Y141334D01*
X122462Y141574D01*
X125756D01*
X125996Y141334D01*
D02*
G37*
G36*
X120602D02*
Y138574D01*
X120362Y138334D01*
X117068D01*
X116828Y138574D01*
Y141334D01*
X117068Y141574D01*
X120362D01*
X120602Y141334D01*
D02*
G37*
G36*
X153258Y103259D02*
Y100618D01*
X153018Y100378D01*
X150258D01*
X150018Y100618D01*
Y103259D01*
X150258Y103499D01*
X153018D01*
X153258Y103259D01*
D02*
G37*
G36*
X163418Y103658D02*
Y100364D01*
X163178Y100124D01*
X160418D01*
X160178Y100364D01*
Y103658D01*
X160418Y103898D01*
X163178D01*
X163418Y103658D01*
D02*
G37*
G36*
X194313Y101614D02*
Y97014D01*
X193913Y96614D01*
X188948D01*
X186262Y98450D01*
Y100178D01*
X188948Y102014D01*
X193913D01*
X194313Y101614D01*
D02*
G37*
G36*
X183562Y100178D02*
Y98450D01*
X180876Y96614D01*
X175911D01*
X175511Y97014D01*
Y101614D01*
X175911Y102014D01*
X180876D01*
X183562Y100178D01*
D02*
G37*
G36*
X153258Y98518D02*
Y95877D01*
X153018Y95637D01*
X150258D01*
X150018Y95877D01*
Y98518D01*
X150258Y98758D01*
X153018D01*
X153258Y98518D01*
D02*
G37*
G36*
X163418Y98264D02*
Y94970D01*
X163178Y94730D01*
X160418D01*
X160178Y94970D01*
Y98264D01*
X160418Y98504D01*
X163178D01*
X163418Y98264D01*
D02*
G37*
D47*
X289814Y375661D02*
D03*
Y406659D02*
D03*
D48*
X51935Y377749D02*
D03*
Y415747D02*
D03*
X66937D02*
D03*
Y377749D02*
D03*
D51*
X200558Y238944D02*
D03*
X210058Y261944D02*
D03*
X219558Y238944D02*
D03*
D53*
X245618Y419555D02*
D03*
Y411056D02*
D03*
Y402554D02*
D03*
Y394056D02*
D03*
Y385554D02*
D03*
Y377055D02*
D03*
Y368554D02*
D03*
Y360055D02*
D03*
Y351556D02*
D03*
Y343055D02*
D03*
Y334556D02*
D03*
Y326055D02*
D03*
Y317556D02*
D03*
Y309055D02*
D03*
Y300556D02*
D03*
X106116D02*
D03*
Y309055D02*
D03*
Y317556D02*
D03*
Y326055D02*
D03*
Y334556D02*
D03*
Y343055D02*
D03*
Y351556D02*
D03*
Y360055D02*
D03*
Y368554D02*
D03*
Y377055D02*
D03*
Y385554D02*
D03*
Y394056D02*
D03*
Y402554D02*
D03*
Y411056D02*
D03*
Y419555D02*
D03*
D54*
X235367Y289804D02*
D03*
X226868D02*
D03*
X218366D02*
D03*
X209867D02*
D03*
X201366D02*
D03*
X192867D02*
D03*
X184366D02*
D03*
X175867D02*
D03*
X167368D02*
D03*
X158867D02*
D03*
X150368D02*
D03*
X141867D02*
D03*
X133368D02*
D03*
X124866D02*
D03*
X116368D02*
D03*
Y430304D02*
D03*
X124866D02*
D03*
X133368D02*
D03*
X141867D02*
D03*
X150368D02*
D03*
X158867D02*
D03*
X167368D02*
D03*
X175867D02*
D03*
X184366D02*
D03*
X192867D02*
D03*
X201366D02*
D03*
X209867D02*
D03*
X218366D02*
D03*
X226868D02*
D03*
X235367D02*
D03*
D55*
X245867Y430055D02*
D03*
X105867D02*
D03*
X245867Y290055D02*
D03*
X105867D02*
D03*
D56*
X192367Y376555D02*
D03*
X175867D02*
D03*
X159367D02*
D03*
X192367Y360055D02*
D03*
X175867D02*
D03*
X159367D02*
D03*
X192367Y343555D02*
D03*
X175867D02*
D03*
X159367D02*
D03*
D57*
X314767Y286918D02*
D03*
Y296418D02*
D03*
Y305918D02*
D03*
X290769D02*
D03*
Y296418D02*
D03*
Y286918D02*
D03*
D58*
X322364Y255778D02*
D03*
X295364D02*
D03*
D59*
X129184Y236835D02*
D03*
X138684D02*
D03*
X148184D02*
D03*
D60*
Y213761D02*
D03*
X129184D02*
D03*
D62*
X249174Y259364D02*
D03*
Y245364D02*
D03*
X270510Y316117D02*
D03*
Y302119D02*
D03*
X272796Y259730D02*
D03*
Y245730D02*
D03*
X104140Y236870D02*
D03*
Y222870D02*
D03*
X80264Y237124D02*
D03*
Y223124D02*
D03*
D63*
X163474Y214551D02*
D03*
X182474D02*
D03*
X163474Y236553D02*
D03*
X182474D02*
D03*
X172974D02*
D03*
D64*
X164196Y193802D02*
D03*
X178196D02*
D03*
X177941Y156718D02*
D03*
X163943D02*
D03*
X114780Y172974D02*
D03*
X128778D02*
D03*
X114667Y154432D02*
D03*
X128665D02*
D03*
X177433Y175260D02*
D03*
X163435D02*
D03*
X128666Y197104D02*
D03*
X114666D02*
D03*
M02*
